<?xml version="1.0" encoding="UTF-8" standalone="no"?>
<svg
   xmlns:dc="http://purl.org/dc/elements/1.1/"
   xmlns:cc="http://creativecommons.org/ns#"
   xmlns:rdf="http://www.w3.org/1999/02/22-rdf-syntax-ns#"
   xmlns:svg="http://www.w3.org/2000/svg"
   xmlns="http://www.w3.org/2000/svg"
   xmlns:sodipodi="http://sodipodi.sourceforge.net/DTD/sodipodi-0.dtd"
   xmlns:inkscape="http://www.inkscape.org/namespaces/inkscape"
   version="1.1"
   x="0px"
   y="0px"
   viewBox="0 0 20 20"
   xml:space="preserve"
   id="svg4953"
   inkscape:version="0.91 r13725"
   sodipodi:docname="user-signup.svg"
   width="20"
   height="20"><metadata
     id="metadata4973"><rdf:RDF><cc:Work
         rdf:about=""><dc:format>image/svg+xml</dc:format><dc:type
           rdf:resource="http://purl.org/dc/dcmitype/StillImage" /><dc:title></dc:title></cc:Work></rdf:RDF></metadata><defs
     id="defs4971" /><sodipodi:namedview
     pagecolor="#ffffff"
     bordercolor="#666666"
     borderopacity="1"
     objecttolerance="10"
     gridtolerance="10"
     guidetolerance="10"
     inkscape:pageopacity="0"
     inkscape:pageshadow="2"
     inkscape:window-width="1343"
     inkscape:window-height="830"
     id="namedview4969"
     showgrid="false"
     inkscape:zoom="5.3400704"
     inkscape:cx="45.056605"
     inkscape:cy="2.2021154"
     inkscape:window-x="832"
     inkscape:window-y="73"
     inkscape:window-maximized="0"
     inkscape:current-layer="svg4953" /><g
     id="g4955"
     transform="matrix(0.22345233,0,0,0.22345233,-1.1726165,-1.6238785)"
     style="fill:#ffffff"><g
       id="g4957"
       style="fill:#ffffff"><path
         d="m 86,47 -7,0 0,-7 c 0,-1.105 -0.895,-2 -2,-2 l -2,0 c -1.105,0 -2,0.895 -2,2 l 0,7 -7,0 c -1.105,0 -2,0.895 -2,2 l 0,2 c 0,1.105 0.895,2 2,2 l 7,0 0,7 c 0,1.105 0.895,2 2,2 l 2,0 c 1.105,0 2,-0.895 2,-2 l 0,-7 7,0 c 1.105,0 2,-0.895 2,-2 l 0,-2 c 0,-1.105 -0.895,-2 -2,-2 z"
         id="path4959"
         inkscape:connector-curvature="0"
         style="fill:#ffffff" /><path
         d="m 39.999,50.06 c 8.56,0 15.421,-9.707 15.421,-18.35 0,-8.643 -6.94,-15.65 -15.5,-15.65 -8.56,0 -15.5,7.007 -15.5,15.65 10e-4,8.643 7.019,18.35 15.579,18.35 z"
         id="path4961"
         inkscape:connector-curvature="0"
         style="fill:#ffffff" /><path
         d="m 45.737,56.979 -11.527,0 C 21.944,56.979 12,66.909 12,79.159 l 0.053,2.623 c 0,3.422 2.778,6.197 6.206,6.197 l 43.536,0 c 3.427,0 6.206,-2.775 6.206,-6.197 L 67.948,79.159 C 67.947,66.909 58.004,56.979 45.737,56.979 Z"
         id="path4963"
         inkscape:connector-curvature="0"
         style="fill:#ffffff" /></g></g></svg>