<?xml version="1.0" encoding="utf-8"?>
<!-- Generator: Adobe Illustrator 15.1.0, SVG Export Plug-In . SVG Version: 6.00 Build 0)  -->
<!DOCTYPE svg PUBLIC "-//W3C//DTD SVG 1.1//EN" "http://www.w3.org/Graphics/SVG/1.1/DTD/svg11.dtd">
<svg version="1.1" id="Layer_1" xmlns="http://www.w3.org/2000/svg" xmlns:xlink="http://www.w3.org/1999/xlink" x="0px" y="0px"
	 width="40px" height="40px" viewBox="620 380 40 40" enable-background="new 620 380 40 40" xml:space="preserve">
<g>
	<g>
		<path d="M648.404,386.164c-0.141-1.072-0.955-3.099-3.018-3.099h-2.678v-1.652c0-0.228-0.186-0.413-0.414-0.413h-4.589
			c-0.228,0-0.413,0.186-0.413,0.413v1.652h-2.678c-2.063,0-2.876,2.026-3.021,3.117l-2.333,27.295c0,1.906,2.01,3.458,4.479,3.458
			h0.11v1.652c0,0.228,0.185,0.412,0.413,0.412h11.475c0.228,0,0.412-0.185,0.412-0.412v-1.652h0.11
			c2.471,0,4.479-1.552,4.478-3.493L648.404,386.164z M649.914,413.478c0,0.36-0.102,0.704-0.285,1.019
			c-2.826,0.52-6.611,0.3-10.445-0.614c-3.302-0.789-6.422-2.039-8.828-3.527l0.39-4.555c2.364,1.331,5.195,2.416,8.247,3.145
			c2.561,0.611,5.047,0.922,7.283,0.922c1.182,0,2.289-0.092,3.307-0.268L649.914,413.478z M647.532,385.992
			c0.035,0.147,0.05,0.246,0.052,0.262l0.404,4.717c-2.104,0.923-4.527,1.654-7.044,2.115c-1.136,0.208-2.275,0.357-3.389,0.447
			c-2.001-0.579-3.898-1.32-5.575-2.18l0.208-2.43c0.536,0.034,1.082,0.057,1.645,0.057c1.874,0,3.878-0.188,5.902-0.56
			C642.559,387.904,645.238,387.065,647.532,385.992z M648.063,391.84l0.25,2.92c-2.475,0.244-5.447,0.015-8.494-0.654
			c0.425-0.062,0.851-0.129,1.275-0.207C643.57,393.444,645.963,392.734,648.063,391.84z M638.992,394.77
			c2.534,0.605,5.046,0.917,7.304,0.917c0.728,0,1.419-0.041,2.086-0.106l0.265,3.087c-1.25,0.703-2.686,1.333-4.24,1.863
			c-1.684-0.121-3.439-0.397-5.222-0.823c-2.806-0.67-5.448-1.658-7.673-2.86l0.394-4.605
			C634.021,393.293,636.453,394.164,638.992,394.77z M638.992,400.511c1.149,0.273,2.285,0.48,3.401,0.633
			c-0.912,0.247-1.852,0.464-2.806,0.639c-3.06,0.561-5.995,0.688-8.53,0.383l0.378-4.425
			C633.654,398.901,636.249,399.855,638.992,400.511z M633.848,403.156c1.861,0,3.85-0.188,5.887-0.562
			c3.332-0.609,6.487-1.68,8.988-3.028l0.432,5.03c-2.355,1.188-5.184,2.108-8.209,2.662c-1.136,0.208-2.276,0.358-3.39,0.448
			c-2.493-0.72-4.79-1.678-6.732-2.813l0.163-1.902C631.896,403.1,632.852,403.156,633.848,403.156z M649.229,405.479l0.283,3.297
			c-2.658,0.467-6.143,0.29-9.711-0.495c0.431-0.063,0.862-0.131,1.293-0.21C644.071,407.526,646.865,406.632,649.229,405.479z
			 M638.119,381.826h3.764v1.239h-3.764V381.826z M645.387,383.892c1.014,0,1.572,0.686,1.871,1.317
			c-0.893,0.422-1.848,0.806-2.851,1.148c-1.688-0.122-3.445-0.398-5.223-0.823c-1.742-0.415-3.407-0.956-4.975-1.598
			c0.127-0.026,0.261-0.045,0.406-0.045H645.387L645.387,383.892z M633.271,384.441c1.786,0.775,3.706,1.415,5.721,1.896
			c1.147,0.274,2.284,0.481,3.403,0.634c-0.914,0.246-1.852,0.463-2.808,0.639c-2.56,0.468-5.079,0.635-7.328,0.492l0.156-1.828
			C632.424,386.207,632.583,385.124,633.271,384.441z M645.324,418.175h-10.647v-1.239h10.647V418.175z M633.741,416.109
			c-2.014,0-3.653-1.181-3.654-2.597l0.192-2.243c2.427,1.439,5.487,2.646,8.714,3.416c2.56,0.61,5.044,0.921,7.283,0.921
			c0.824,0,1.611-0.048,2.359-0.133c-0.639,0.396-1.467,0.637-2.374,0.637L633.741,416.109L633.741,416.109z"/>
	</g>
</g>
</svg>
