<?xml version="1.0" encoding="UTF-8" standalone="no"?>
<svg
   xmlns:dc="http://purl.org/dc/elements/1.1/"
   xmlns:cc="http://creativecommons.org/ns#"
   xmlns:rdf="http://www.w3.org/1999/02/22-rdf-syntax-ns#"
   xmlns:svg="http://www.w3.org/2000/svg"
   xmlns="http://www.w3.org/2000/svg"
   xmlns:sodipodi="http://sodipodi.sourceforge.net/DTD/sodipodi-0.dtd"
   xmlns:inkscape="http://www.inkscape.org/namespaces/inkscape"
   version="1.1"
   x="0px"
   y="0px"
   viewBox="206 206 150 150"
   enable-background="new 206 206 100 100"
   xml:space="preserve"
   id="svg2"
   inkscape:version="0.91 r13725"
   sodipodi:docname="blog.svg"
   width="150"
   height="150"><metadata
     id="metadata64"><rdf:RDF><cc:Work
         rdf:about=""><dc:format>image/svg+xml</dc:format><dc:type
           rdf:resource="http://purl.org/dc/dcmitype/StillImage" /><dc:title /></cc:Work></rdf:RDF></metadata><defs
     id="defs62" /><sodipodi:namedview
     pagecolor="#ffffff"
     bordercolor="#666666"
     borderopacity="1"
     objecttolerance="10"
     gridtolerance="10"
     guidetolerance="10"
     inkscape:pageopacity="0"
     inkscape:pageshadow="2"
     inkscape:window-width="1792"
     inkscape:window-height="1071"
     id="namedview60"
     showgrid="false"
     inkscape:zoom="3.776"
     inkscape:cx="48.109203"
     inkscape:cy="92.249149"
     inkscape:window-x="0"
     inkscape:window-y="0"
     inkscape:window-maximized="1"
     inkscape:current-layer="svg2" /><g
     id="g4201"
     transform="matrix(1.3839018,0,0,1.3839018,45.760151,-7.1623711)"
     style="fill:#f9f9f9"><path
       id="path4"
       d="m 189.48805,170.07908 0,22.318 c 0,6.152 -5.025,11.178 -11.172,11.178 l -25.507,0 -14.388,14.388 0,-14.388 -7.266,0 c -6.146,0 -11.172,-5.026 -11.172,-11.178 l 0,-22.318 c 0,-6.152 5.026,-11.178 11.172,-11.178 l 47.161,0 c 6.146,0 11.172,5.026 11.172,11.178 z"
       inkscape:connector-curvature="0"
       style="fill:#f9f9f9" /><path
       id="path6-5"
       d="m 208.79805,211.47908 -31.85,0 c -6.146,0 -11.171,5.033 -11.171,11.179 l 0,12.48 c 0,6.152 5.026,11.185 11.171,11.185 l 17.318,0 11.224,11.225 0,-11.226 3.308,0 c 6.146,0 11.185,-5.032 11.185,-11.185 l 0,-12.48 c 0,-6.145 -5.039,-11.178 -11.185,-11.178 z"
       inkscape:connector-curvature="0"
       style="fill:#f9f9f9" /></g></svg>