<?xml version="1.0" encoding="utf-8"?>
<!-- Generator: Adobe Illustrator 15.1.0, SVG Export Plug-In . SVG Version: 6.00 Build 0)  -->
<!DOCTYPE svg PUBLIC "-//W3C//DTD SVG 1.1//EN" "http://www.w3.org/Graphics/SVG/1.1/DTD/svg11.dtd">
<svg version="1.1" id="Layer_1" xmlns="http://www.w3.org/2000/svg" xmlns:xlink="http://www.w3.org/1999/xlink" x="0px" y="0px"
	 width="40px" height="40px" viewBox="620 380 40 40" enable-background="new 620 380 40 40" xml:space="preserve">
<g>
	<g>
		<path d="M640.449,411.624c-2.5,0-5.002-0.281-7.438-0.835c-0.135-0.031-0.225-0.097-0.273-0.201
			c-0.059-0.127-0.06-0.23-0.001-0.37l2.435-5.666c0.056-0.134,0.173-0.169,0.569-0.169h9.126c0.386,0,0.506,0.039,0.559,0.179
			l2.233,5.656c0.052,0.136,0.047,0.283-0.015,0.409c-0.056,0.114-0.155,0.195-0.274,0.222
			C645.116,411.363,642.788,411.624,640.449,411.624z M634.395,410.593c2.022,0.401,4.052,0.605,6.035,0.605
			c1.962,0,3.852-0.177,5.617-0.526l0.967-0.08l-2.241-5.597h-8.957l-2.452,5.55L634.395,410.593z"/>
		<path d="M635.616,404.69l-0.161,0.363l-2.191,4.959l-0.209,0.472c-0.019-0.006-0.036-0.014-0.041-0.025
			c-0.019-0.041-0.024-0.053,0.002-0.117l2.421-5.637C635.482,404.695,635.551,404.692,635.616,404.69 M644.979,404.69
			c0.062,0.002,0.13,0.006,0.174,0.015l2.219,5.616c0.017,0.043,0.029,0.107-0.002,0.172c-0.009,0.017-0.023,0.038-0.047,0.05
			l-0.181-0.448l-2.01-5.021L644.979,404.69 M644.866,404.078h-9.126c-0.347,0-0.705,0.009-0.85,0.354l-2.435,5.669
			c-0.092,0.22-0.09,0.411,0.005,0.617c0.094,0.202,0.27,0.321,0.482,0.369c2.496,0.568,5.021,0.843,7.506,0.843
			c2.365,0,4.716-0.264,6.99-0.782c0.209-0.048,0.384-0.188,0.48-0.387c0.099-0.201,0.107-0.436,0.024-0.654l-2.232-5.653
			C645.575,404.096,645.22,404.078,644.866,404.078L644.866,404.078z M640.429,410.893c-1.986,0-4.003-0.206-5.997-0.604
			l-0.609-0.028l2.191-4.959h8.55l2.011,5.021l-0.588,0.049C644.181,410.729,642.311,410.893,640.429,410.893L640.429,410.893z"/>
	</g>
	<g>
		<path d="M640.305,417.418c-6.31,0-12.584-1.581-18.649-4.7c-0.151-0.079-0.257-0.207-0.313-0.383
			c-0.056-0.175-0.046-0.363,0.028-0.53l2.059-4.578c0.095-0.21,0.32-0.357,0.549-0.357c0.092,0,0.175,0.021,0.252,0.066
			c0.433,0.247,1.354,0.746,2.658,1.31l0.793,0.345l1.354-9.502l-0.91,0.155c-0.226,0.037-0.428,0.055-0.617,0.055
			c-1.742,0-3.113-1.237-3.471-1.802c-0.104-0.166-0.127-0.33-0.07-0.502c0.037-0.105,0.112-0.237,0.376-0.314
			c1.708-0.5,3.32-3.53,3.603-4.659c0.087-0.35,0.405-0.474,0.672-0.474h12.517l0.046-0.544c3.896-7.734,13.673-8.374,14.777-8.421
			c0.374,0.004,0.551,0.361,0.551,0.691v14.806c0,0.332-0.179,0.676-0.52,0.688l-2.29,0.088c-0.333-0.004-0.631-0.266-0.679-0.609
			c-0.264-1.904-1.199-2.864-1.938-3.334l-1.313-0.83l2.764,14.569l0.762-0.348c0.913-0.415,1.786-0.863,2.67-1.369
			c0.074-0.043,0.153-0.063,0.242-0.063c0.233,0,0.467,0.155,0.555,0.37l1.876,4.568c0.136,0.333,0.014,0.748-0.274,0.924
			C657.075,413.515,650.148,417.418,640.305,417.418z M621.873,412.114l0.615,0.306c5.805,2.881,11.799,4.341,17.817,4.341
			c8.675,0,14.979-3.017,17.286-4.313l0.551-0.311l-1.896-4.623l-0.64,0.349c-0.936,0.509-1.882,0.965-2.891,1.395
			c-0.066,0.028-0.135,0.043-0.205,0.043c-0.269,0-0.479-0.194-0.537-0.496l-2.735-14.396c-0.036-0.189,0-0.373,0.098-0.505
			c0.091-0.12,0.211-0.186,0.35-0.19l0.136,0.017c0.652,0.139,2.933,0.845,3.575,3.891l0.097,0.579l2.404-0.091v-14.87l-0.639,0.069
			c-8.846,0.738-12.33,5.414-13.62,8.136c-0.097,0.205-0.264,0.397-0.388,0.448l-0.033,0.013l-0.029,0.021
			c-0.044,0.031-0.091,0.07-0.139,0.11c-0.051,0.043-0.136,0.114-0.171,0.124l-12.333-0.002l-0.155,0.324
			c-0.424,1.179-1.552,3.253-2.966,4.25l-0.854,0.637l0.866,0.591c0.461,0.306,1.192,0.667,2.073,0.667
			c0.514,0,1.022-0.119,1.511-0.355c0.068-0.032,0.138-0.048,0.212-0.048c0.127,0,0.244,0.054,0.319,0.149
			c0.091,0.116,0.125,0.269,0.099,0.45l-1.411,9.899c-0.043,0.302-0.265,0.521-0.528,0.521c-0.066,0-0.131-0.014-0.193-0.039
			c-1.332-0.536-2.346-1.038-2.963-1.365l-0.615-0.326L621.873,412.114z"/>
		<path d="M655.952,382.888c0.037,0.002,0.069,0.012,0.097,0.026l-0.521,0.057l-0.285,0.031c-0.95,0.079-1.841,0.203-2.674,0.365
			C654.276,382.988,655.573,382.905,655.952,382.888 M624.751,396.853l-0.021,0.016l-0.482,0.36
			c-0.012-0.05-0.006-0.093,0.008-0.134c0.011-0.034,0.027-0.079,0.173-0.122C624.538,396.941,624.645,396.901,624.751,396.853
			 M624.808,397.901l0.464,0.316c0.493,0.326,1.281,0.715,2.238,0.715c0.561,0,1.114-0.129,1.643-0.384
			c0.027-0.014,0.053-0.02,0.081-0.02c0.024,0,0.057,0.006,0.076,0.029c0.032,0.041,0.046,0.097,0.044,0.165l-0.783,0.134
			l-0.493,0.084c-0.212,0.035-0.398,0.052-0.569,0.052C626.363,398.993,625.393,398.42,624.808,397.901 M656.098,398.406
			c-0.032,0.032-0.071,0.053-0.121,0.055l-2.271,0.087c-0.06-0.002-0.116-0.018-0.168-0.044l0.237-0.009l1.842-0.07L656.098,398.406
			 M623.978,407.175c0.039,0,0.07,0.008,0.1,0.025c0.438,0.251,1.37,0.756,2.688,1.326l0.425,0.185l0.526,0.228
			c-0.002,0-0.004,0-0.006,0c-0.026,0-0.051-0.005-0.081-0.018c-1.319-0.53-2.322-1.027-2.931-1.351l-0.326-0.174l-0.415-0.221
			C623.964,407.176,623.971,407.175,623.978,407.175 M656.207,407.176c0.006,0,0.012,0.001,0.018,0.001l-0.425,0.231l-0.34,0.186
			c-0.925,0.504-1.862,0.956-2.865,1.383c-0.025,0.011-0.052,0.017-0.077,0.018l0.497-0.227l0.405-0.186
			c0.925-0.421,1.807-0.873,2.696-1.383C656.144,407.183,656.172,407.176,656.207,407.176 M621.701,412.37l0.3,0.149l0.352,0.175
			c5.846,2.901,11.886,4.373,17.953,4.373c8.748,0,15.107-3.045,17.436-4.354l0.315-0.178l0.22-0.123
			c-0.021,0.022-0.045,0.043-0.071,0.059c-1.277,0.775-8.143,4.642-17.901,4.642c-6.26,0-12.488-1.57-18.508-4.666
			C621.759,412.427,621.728,412.401,621.701,412.37 M655.946,382.276c-1.845,0.079-11.263,1.011-15.063,8.643l-0.027,0.322h-12.236
			c-0.423,0-0.849,0.228-0.969,0.706c-0.29,1.158-1.873,3.994-3.392,4.439c-0.28,0.082-0.486,0.238-0.58,0.51
			c-0.088,0.262-0.052,0.521,0.101,0.764c0.404,0.638,1.847,1.944,3.729,1.944c0.222,0,0.447-0.023,0.669-0.061l0.497-0.084
			l-1.239,8.689l-0.425-0.185c-1.294-0.56-2.202-1.052-2.628-1.296c-0.124-0.069-0.259-0.105-0.404-0.105
			c-0.35,0-0.682,0.216-0.828,0.537l-2.059,4.579c-0.105,0.236-0.12,0.502-0.041,0.749c0.081,0.251,0.241,0.445,0.465,0.562
			c6.109,3.141,12.431,4.733,18.789,4.733c9.918,0,16.916-3.939,18.218-4.729c0.418-0.255,0.593-0.826,0.398-1.301l-1.876-4.568
			c-0.135-0.33-0.479-0.561-0.838-0.561c-0.142,0-0.273,0.035-0.394,0.103c-0.87,0.499-1.735,0.943-2.646,1.357l-0.407,0.186
			l-2.56-13.496l0.718,0.454c0.678,0.432,1.55,1.322,1.799,3.118c0.07,0.501,0.498,0.868,0.992,0.872l2.29-0.087
			c0.486-0.017,0.814-0.453,0.814-0.993v-14.805C656.815,382.722,656.468,382.282,655.946,382.276L655.946,382.276z
			 M627.509,398.321c-0.813,0-1.482-0.336-1.901-0.613l-0.512-0.35l0.503-0.376c1.563-1.103,2.69-3.32,3.066-4.368l0.072-0.15
			h12.161c0.159,0,0.323-0.186,0.469-0.29c0.229-0.092,0.438-0.364,0.548-0.6c1.03-2.175,4.292-7.204,13.378-7.963l0.3-0.032v14.234
			l-1.843,0.07l-0.055-0.327c-0.679-3.216-3.092-3.974-3.843-4.132l-0.177-0.018c-0.234,0.008-0.441,0.122-0.585,0.313
			c-0.152,0.203-0.204,0.475-0.153,0.745l2.735,14.396c0.085,0.445,0.423,0.744,0.837,0.744c0.111,0,0.221-0.022,0.325-0.066
			c1.02-0.434,1.974-0.895,2.917-1.408l0.34-0.186l1.665,4.059l-0.316,0.178c-2.285,1.284-8.531,4.273-17.135,4.273
			c-5.972,0-11.92-1.45-17.681-4.31l-0.352-0.175l1.813-4.035l0.327,0.174c0.622,0.331,1.646,0.838,2.99,1.379
			c0.099,0.041,0.204,0.062,0.309,0.062c0.417,0,0.766-0.33,0.831-0.784l1.411-9.899c0.038-0.263-0.019-0.499-0.163-0.684
			c-0.133-0.168-0.336-0.265-0.558-0.265c-0.117,0-0.233,0.025-0.345,0.078C628.436,398.215,627.972,398.321,627.509,398.321
			L627.509,398.321z"/>
	</g>
</g>
</svg>
