<?xml version="1.0" encoding="utf-8"?>
<!-- Generator: Adobe Illustrator 15.1.0, SVG Export Plug-In . SVG Version: 6.00 Build 0)  -->
<!DOCTYPE svg PUBLIC "-//W3C//DTD SVG 1.1//EN" "http://www.w3.org/Graphics/SVG/1.1/DTD/svg11.dtd">
<svg version="1.1" id="Layer_1" xmlns="http://www.w3.org/2000/svg" xmlns:xlink="http://www.w3.org/1999/xlink" x="0px" y="0px"
	 width="40px" height="40px" viewBox="621.063 298.339 40 40" enable-background="new 621.063 298.339 40 40" xml:space="preserve">
<g>
	<path d="M643.653,305.062c0-1.536-1.25-2.786-2.786-2.786s-2.786,1.25-2.786,2.786c0,1.537,1.25,2.787,2.786,2.787
		S643.653,306.599,643.653,305.062z M639.733,305.062c0-0.625,0.509-1.134,1.134-1.134s1.135,0.509,1.135,1.134
		c0,0.625-0.51,1.134-1.135,1.134S639.733,305.687,639.733,305.062z"/>
	<path d="M648.677,330.183c-0.014-2.003-0.805-3.896-2.228-5.335c-0.108-0.136-0.221-0.27-0.332-0.402
		c-0.664-0.792-1.188-1.417-1.188-2.764c0-0.149,0.004-0.288,0.016-0.42c0.095-0.997,0.514-1.567,1.096-2.263
		c0.229-0.274,0.244-0.669,0.036-0.959c-0.208-0.291-0.586-0.404-0.92-0.275c-0.188,0.073-0.383,0.155-0.576,0.236
		c-0.382,0.16-0.896,0.376-1.147,0.397c-0.152-0.131-0.392-0.589-0.538-0.871c-0.294-0.563-0.643-1.229-1.202-1.526v-5.391
		c0.816,0.445,1.628,0.676,2.397,0.676c1.22,0,2.232-0.607,2.707-1.624c0.602-1.286,0.26-2.971-0.906-4.599
		c1.167-1.628,1.508-3.313,0.907-4.599c-0.476-1.017-1.487-1.623-2.707-1.623c-1.029,0-2.134,0.412-3.225,1.197
		c-1.09-0.786-2.195-1.197-3.224-1.197c-1.22,0-2.232,0.607-2.708,1.624c-0.601,1.286-0.26,2.971,0.907,4.599
		c-1.167,1.628-1.508,3.313-0.907,4.6c0.476,1.017,1.488,1.623,2.707,1.623h0c0.77,0,1.581-0.23,2.397-0.675v2.235
		c-0.762-0.612-1.712-0.964-2.714-0.964c-1.452,0-2.803,0.723-3.614,1.935c-0.187,0.278-0.187,0.642,0,0.92
		c0.811,1.211,2.163,1.935,3.614,1.935c1.002,0,1.952-0.351,2.714-0.964v0.595c-0.341,0.338-0.592,0.808-0.81,1.225
		c-0.148,0.284-0.392,0.75-0.536,0.871c-0.241-0.016-0.764-0.236-1.15-0.398c-0.193-0.081-0.387-0.163-0.576-0.236
		c-0.334-0.13-0.712-0.016-0.919,0.275c-0.208,0.29-0.193,0.685,0.036,0.959c0.582,0.696,1.001,1.266,1.095,2.262
		c0.012,0.134,0.021,0.273,0.021,0.422c0,1.343-0.524,1.967-1.188,2.757c-0.113,0.135-0.227,0.27-0.337,0.408
		c-1.432,1.439-2.223,3.339-2.226,5.355c-0.004,2.02,0.785,3.924,2.221,5.359c0.227,0.227,0.469,0.432,0.718,0.626h-0.421v1.652
		h10.193v-1.652h-0.413c0.249-0.194,0.491-0.399,0.718-0.626C647.905,334.121,648.691,332.211,648.677,330.183z M637.327,315.016
		c-0.697,0-1.357-0.27-1.854-0.742c0.496-0.472,1.156-0.742,1.854-0.742c0.698,0,1.357,0.27,1.854,0.742
		C638.684,314.747,638.024,315.016,637.327,315.016z M637.643,309.632c-0.578,0-1.008-0.238-1.21-0.67
		c-0.3-0.641-0.171-1.862,1.089-3.37c0.256-0.307,0.256-0.753,0-1.06c-1.259-1.507-1.389-2.729-1.088-3.369
		c0.202-0.433,0.632-0.671,1.21-0.671c0.792,0,1.749,0.435,2.694,1.225c0.307,0.256,0.752,0.256,1.06,0
		c0.944-0.79,1.901-1.225,2.693-1.225c0.578,0,1.008,0.238,1.21,0.671c0.301,0.64,0.172,1.862-1.088,3.369
		c-0.257,0.307-0.257,0.753,0,1.06c1.26,1.507,1.388,2.729,1.088,3.369c-0.202,0.433-0.632,0.671-1.21,0.671
		c-0.792,0-1.749-0.435-2.693-1.225c-0.308-0.256-0.754-0.256-1.06,0C639.393,309.196,638.436,309.632,637.643,309.632
		L637.643,309.632z M635.018,330.205c0.003-1.612,0.641-3.131,1.796-4.279c0.022-0.022,0.043-0.045,0.063-0.07
		c0.11-0.139,0.224-0.274,0.337-0.409c0.729-0.868,1.557-1.852,1.557-3.766c0-0.182-0.009-0.362-0.028-0.568
		c-0.041-0.435-0.13-0.819-0.248-1.162c0.077,0.009,0.153,0.014,0.229,0.014c0.199,0,0.384-0.035,0.548-0.103
		c0.649-0.269,1.005-0.952,1.351-1.612c0.119-0.229,0.302-0.579,0.441-0.76c0.141,0.181,0.323,0.531,0.442,0.76
		c0.345,0.661,0.701,1.343,1.35,1.612c0.228,0.093,0.495,0.122,0.777,0.089c-0.119,0.343-0.207,0.727-0.248,1.163
		c-0.016,0.171-0.023,0.351-0.023,0.566c0,1.918,0.825,2.903,1.555,3.771c0.111,0.133,0.224,0.267,0.332,0.403
		c0.019,0.024,0.039,0.046,0.061,0.068c1.15,1.15,1.789,2.666,1.801,4.27c0.011,1.605-0.611,3.118-1.753,4.259
		c-1.146,1.146-2.668,1.776-4.288,1.776s-3.144-0.631-4.289-1.776C635.64,333.313,635.015,331.805,635.018,330.205z"/>
</g>
</svg>
