<?xml version="1.0" encoding="utf-8"?>
<!-- Generator: Adobe Illustrator 15.1.0, SVG Export Plug-In . SVG Version: 6.00 Build 0)  -->
<!DOCTYPE svg PUBLIC "-//W3C//DTD SVG 1.1//EN" "http://www.w3.org/Graphics/SVG/1.1/DTD/svg11.dtd">
<svg version="1.1" id="Layer_1" xmlns="http://www.w3.org/2000/svg" xmlns:xlink="http://www.w3.org/1999/xlink" x="0px" y="0px"
	 width="40px" height="40px" viewBox="-12.5 -10 40 40" enable-background="new -12.5 -10 40 40" xml:space="preserve">
<path d="M22.491,7.413c-0.202-0.205-0.479-0.319-0.771-0.319h-0.945c-0.734-3.48-2.796-6.466-5.64-8.406h3.517
	c0.318,0.395,0.801,0.65,1.349,0.65c0.959,0,1.74-0.782,1.74-1.742c0-0.961-0.781-1.742-1.74-1.742c-0.548,0-1.03,0.257-1.349,0.652
	h-8.337v-0.633c0-0.29-0.116-0.567-0.318-0.771c-0.209-0.206-0.483-0.32-0.773-0.32H5.776c-0.602,0-1.089,0.489-1.089,1.091v0.633
	h-8.533c-0.32-0.395-0.801-0.652-1.347-0.652c-0.961,0-1.742,0.781-1.742,1.742c0,0.96,0.781,1.742,1.742,1.742
	c0.545,0,1.027-0.256,1.347-0.65h3.702c-2.84,1.941-4.903,4.928-5.639,8.406h-0.938c-0.604,0-1.092,0.487-1.092,1.089v3.448
	c0,0.287,0.115,0.566,0.32,0.771c0.204,0.201,0.481,0.318,0.771,0.318h0.938c1.109,5.236,5.236,9.352,10.47,10.459v0.951
	c0,0.6,0.489,1.086,1.091,1.086h3.443c0.602,0,1.09-0.482,1.09-1.086v-0.945c5.235-1.105,9.359-5.229,10.468-10.465h0.941
	c0.602,0,1.092-0.49,1.092-1.092V8.183C22.813,7.895,22.7,7.617,22.491,7.413z M20.629,9.274v1.265h-1.264V9.274H20.629z
	 M6.868-3.035h1.264v1.264H6.868V-3.035z M-5.632,9.274h1.265v1.265h-1.265V9.274z M8.132,23.039H6.868v-1.266h1.264V23.039z
	 M9.997,19.91c-0.209-0.203-0.483-0.32-0.773-0.32l-3.447,0.002c-0.602,0-1.089,0.49-1.089,1.09v0.271
	c-1.082-0.279-2.101-0.707-3.035-1.264v-8.654c2.014-0.965,3.337-2.935,3.637-5.404h1.12v5.371
	c-1.329,0.455-2.289,1.715-2.292,3.197c0.002,1.863,1.52,3.379,3.383,3.379c1.864,0,3.383-1.518,3.383-3.379
	c0-1.482-0.962-2.742-2.291-3.199V5.631h1.119c0.302,2.469,1.624,4.438,3.637,5.402v8.66c-0.935,0.559-1.953,0.98-3.032,1.254
	v-0.266C10.315,20.393,10.199,20.119,9.997,19.91z M7.502,13c0.66,0,1.198,0.535,1.198,1.199c0,0.66-0.54,1.197-1.2,1.197
	s-1.2-0.537-1.2-1.197C6.3,13.537,6.84,13,7.502,13z M15.531,17.998v-7.699c0-0.472-0.307-0.888-0.75-1.035
	c-1.849-0.612-2.952-2.378-2.952-4.725c0-0.603-0.487-1.091-1.092-1.091H4.264c-0.603,0-1.092,0.488-1.092,1.091
	c0,2.349-1.105,4.115-2.952,4.727c-0.447,0.147-0.749,0.566-0.749,1.035v7.691c-1.44-1.43-2.495-3.244-3.013-5.271h0.268
	c0.602,0,1.089-0.488,1.089-1.09V8.185c0-0.602-0.488-1.091-1.089-1.091h-0.268c1.027-4.029,4.201-7.201,8.23-8.231v0.458
	c0,0.602,0.488,1.092,1.09,1.092h3.445c0.604,0,1.088-0.49,1.088-1.092v-0.459c4.034,1.027,7.205,4.2,8.231,8.232h-0.266
	c-0.604,0-1.091,0.489-1.091,1.091v3.446c0,0.289,0.116,0.566,0.317,0.771c0.206,0.205,0.483,0.318,0.773,0.318h0.266
	C18.028,14.748,16.973,16.566,15.531,17.998z"/>
</svg>
