<?xml version="1.0" encoding="UTF-8" standalone="no"?>
<svg
   xmlns:dc="http://purl.org/dc/elements/1.1/"
   xmlns:cc="http://creativecommons.org/ns#"
   xmlns:rdf="http://www.w3.org/1999/02/22-rdf-syntax-ns#"
   xmlns:svg="http://www.w3.org/2000/svg"
   xmlns="http://www.w3.org/2000/svg"
   xmlns:sodipodi="http://sodipodi.sourceforge.net/DTD/sodipodi-0.dtd"
   xmlns:inkscape="http://www.inkscape.org/namespaces/inkscape"
   version="1.1"
   x="0px"
   y="0px"
   viewBox="0 0 20 20"
   xml:space="preserve"
   id="svg4188"
   inkscape:version="0.91 r13725"
   sodipodi:docname="icon-bag.svg"
   width="20"
   height="20"><metadata
     id="metadata4200"><rdf:RDF><cc:Work
         rdf:about=""><dc:format>image/svg+xml</dc:format><dc:type
           rdf:resource="http://purl.org/dc/dcmitype/StillImage" /><dc:title></dc:title></cc:Work></rdf:RDF></metadata><defs
     id="defs4198" /><sodipodi:namedview
     pagecolor="#ffffff"
     bordercolor="#666666"
     borderopacity="1"
     objecttolerance="10"
     gridtolerance="10"
     guidetolerance="10"
     inkscape:pageopacity="0"
     inkscape:pageshadow="2"
     inkscape:window-width="1792"
     inkscape:window-height="1071"
     id="namedview4196"
     showgrid="false"
     inkscape:zoom="5.0970614"
     inkscape:cx="47.367905"
     inkscape:cy="59.076651"
     inkscape:window-x="0"
     inkscape:window-y="0"
     inkscape:window-maximized="1"
     inkscape:current-layer="svg4188" /><path
     d="M 16.865988,5.4322509 C 16.712772,5.279035 16.540404,5.202427 16.329733,5.202427 l -2.777039,0 0,-0.5554075 c 0,-1.934351 -1.570463,-3.5239658 -3.543118,-3.5239658 -1.93435,0 -3.5239655,1.570463 -3.5239655,3.5239658 l 0,0.5554075 -2.8153417,0 c -0.2106721,0 -0.3830399,0.076608 -0.5362558,0.2298239 C 2.9999489,5.5663151 2.923341,5.7769865 2.9424927,5.9876587 l 0.7660798,9.9973373 c 0.1149116,1.608767 1.4747032,2.89195 3.1026217,2.89195 l 6.3010048,0 c 1.608766,0 2.98771,-1.264031 3.102621,-2.872797 L 17.057508,5.949355 c 0.01915,-0.1723685 -0.05746,-0.3830399 -0.19152,-0.5171041 z M 7.5006659,4.6278678 c 0,-1.3980953 1.1299677,-2.4897587 2.5089101,-2.4897587 1.378944,0 2.489759,1.129967 2.489759,2.4897587 l 0,0.5554075 -4.9986691,0 0,-0.5554075 z M 15.199765,15.92754 c -0.0766,1.091664 -0.995904,1.915199 -2.087566,1.915199 l -6.3010048,0 c -1.0916627,0 -2.0109583,-0.86184 -2.0875663,-1.934351 l -0.7086235,-9.6909053 2.4706061,0 0,1.6279188 c 0,0.2872797 0.2298239,0.517104 0.517104,0.517104 l 0,0 c 0.28728,0 0.5171033,-0.2298243 0.5171033,-0.517104 l 0,-1.6279188 5.0178212,0 0,1.6279188 c 0,0.2872797 0.229824,0.517104 0.517104,0.517104 l 0,0 c 0.28728,0 0.517103,-0.2298243 0.517103,-0.517104 l 0,-1.6279188 2.470607,0 -0.842688,9.7100573 z"
     id="path4190"
     inkscape:connector-curvature="0" /></svg>