<?xml version="1.0" encoding="UTF-8" standalone="no"?>
<!-- Generator: Adobe Illustrator 15.1.0, SVG Export Plug-In . SVG Version: 6.00 Build 0)  -->

<svg
   xmlns:dc="http://purl.org/dc/elements/1.1/"
   xmlns:cc="http://creativecommons.org/ns#"
   xmlns:rdf="http://www.w3.org/1999/02/22-rdf-syntax-ns#"
   xmlns:svg="http://www.w3.org/2000/svg"
   xmlns="http://www.w3.org/2000/svg"
   xmlns:sodipodi="http://sodipodi.sourceforge.net/DTD/sodipodi-0.dtd"
   xmlns:inkscape="http://www.inkscape.org/namespaces/inkscape"
   version="1.1"
   id="Layer_1"
   x="0px"
   y="0px"
   width="40"
   height="30"
   viewBox="0 0 40 30"
   enable-background="new 0 0 128 128"
   xml:space="preserve"
   inkscape:version="0.91 r13725"
   sodipodi:docname="logo-connector.svg"><metadata
     id="metadata4334"><rdf:RDF><cc:Work
         rdf:about=""><dc:format>image/svg+xml</dc:format><dc:type
           rdf:resource="http://purl.org/dc/dcmitype/StillImage" /><dc:title></dc:title></cc:Work></rdf:RDF></metadata><defs
     id="defs4332" /><sodipodi:namedview
     pagecolor="#ffffff"
     bordercolor="#666666"
     borderopacity="1"
     objecttolerance="10"
     gridtolerance="10"
     guidetolerance="10"
     inkscape:pageopacity="0"
     inkscape:pageshadow="2"
     inkscape:window-width="1792"
     inkscape:window-height="1071"
     id="namedview4330"
     showgrid="false"
     inkscape:zoom="6.875"
     inkscape:cx="-15.468116"
     inkscape:cy="11.043452"
     inkscape:window-x="0"
     inkscape:window-y="0"
     inkscape:window-maximized="1"
     inkscape:current-layer="Layer_1" /><path
     display="none"
     d="m 540.014,143.766 -23.653,-5.615 c -0.036,-0.008 -0.073,-0.004 -0.109,-0.012 -0.53,-0.775 -1.33,-1.363 -2.297,-1.594 l -23.654,-5.611 c -0.298,-0.07 -0.597,-0.104 -0.896,-0.104 -0.185,0 -0.365,0.021 -0.547,0.046 -7.481,-4.387 -15.773,-6.706 -24.022,-6.706 -26.375,0 -47.832,21.457 -47.832,47.831 0,26.376 21.457,47.833 47.832,47.833 8.571,0 16.98,-2.313 24.355,-6.679 0.071,0.005 0.143,0.019 0.214,0.019 0.299,0 0.6,-0.032 0.896,-0.104 l 23.654,-5.612 c 1.751,-0.418 2.985,-1.979 2.985,-3.779 l 0,-43.724 5.464,1.416 0,40.706 c 0,1.192 0.551,2.321 1.493,3.059 0.689,0.539 1.531,0.823 2.39,0.823 0.313,0 0.631,-0.039 0.942,-0.114 l 12.832,-3.212 c 1.729,-0.429 2.939,-1.984 2.939,-3.766 l 0,-51.32 c 0,-1.803 -1.236,-3.367 -2.986,-3.781 z m -43.672,19.14 -6.939,0 c -2.146,0 -3.885,1.738 -3.885,3.883 l 0,10.42 c 0,2.143 1.738,3.882 3.885,3.882 l 6.939,0 0,11.087 -6.939,0 c -2.146,0 -3.885,1.738 -3.885,3.883 l 0,2.729 -11.257,-18.668 c -0.729,-1.211 -2.014,-1.882 -3.329,-1.882 -0.684,0 -1.371,0.182 -1.999,0.559 -1.237,0.745 -2.655,1.14 -4.102,1.14 -4.378,0 -7.938,-3.563 -7.938,-7.938 0,-4.375 3.563,-7.935 7.938,-7.935 1.443,0 2.86,0.394 4.1,1.141 0.608,0.368 1.306,0.559 2.003,0.559 0.314,0 0.629,-0.039 0.938,-0.115 1,-0.248 1.859,-0.883 2.39,-1.768 l 11.257,-18.713 0,2.773 c 0,2.145 1.738,3.883 3.885,3.883 l 6.939,0 -0.001,11.08 0,0 z"
     id="path4304"
     inkscape:connector-curvature="0"
     style="display:none;fill:#ffffff" /><g
     id="g4918"
     transform="translate(-0.70908521,0.92727097)"><path
       style="fill:#666666"
       id="path4288"
       d="m 14.0355,2.3332948 c -0.576409,-0.048534 -1.154261,-0.07638 -1.733126,-0.076583 l -0.07986,1.7335396 c 0.578259,-0.00164 1.156721,0.02478 1.733337,0.075966 4.23024,0.3753367 8.352778,2.1746102 11.579256,5.4010889 3.242253,3.2422537 5.04173,7.3883377 5.405391,11.6388507 l -2.59949,0.112005 C 28.003965,17.597507 26.455117,14.073091 23.692219,11.310193 20.942636,8.5606097 17.438292,7.0134019 13.83586,6.6667339 13.259854,6.6112464 12.680979,6.5885153 12.10252,6.5948628 l -0.08027,1.7364086 -0.119985,2.6042046 -0.08007,1.736202 c 0.578665,-0.02457 1.158357,0.0014 1.733134,0.07535 2.137131,0.27459 4.201162,1.227565 5.836824,2.863227 1.644062,1.644063 2.597854,3.720386 2.867533,5.868572 l -2.611372,0.111599 c -0.235479,-1.515674 -0.93434,-2.972577 -2.099047,-4.137285 -1.15815,-1.15815 -2.605638,-1.85537 -4.113524,-2.094944 -0.573341,-0.09133 -1.155284,-0.115901 -1.733543,-0.07413 l -0.08047,1.748077 c 0.577849,-0.06184 1.162038,-0.03911 1.732926,0.07229 1.088328,0.212345 2.126279,0.737569 2.966017,1.577306 0.845068,0.845068 1.371728,1.889367 1.58161,2.983836 0.109546,0.571088 0.129415,1.156104 0.06614,1.733746 l 1.748693,-0.07536 2.613215,-0.112208 1.735995,-0.07453 c 0.01945,-0.578462 -0.0039,-1.157541 -0.06901,-1.732927 -0.289537,-2.568986 -1.412468,-5.058516 -3.376579,-7.022627 -1.954071,-1.954071 -4.429271,-3.075772 -6.985148,-3.372274 l 0.120402,-2.6054343 c 3.183486,0.3270162 6.276049,1.7032383 8.707632,4.1348223 2.443259,2.443259 3.821738,5.553645 4.14076,8.753715 0.05672,0.576002 0.07761,1.155077 0.06655,1.733336 l 1.735796,-0.07433 2.604404,-0.112008 1.735792,-0.07432 c 0.0016,-0.578262 -0.02559,-1.15672 -0.07269,-1.73334 C 32.292152,16.360725 30.325589,11.800607 26.763697,8.2387149 23.218806,4.6938234 18.684077,2.72808 14.0355,2.3332948 Z"
       inkscape:connector-curvature="0" /><circle
       transform="matrix(0.70710678,-0.70710678,0.70710678,0.70710678,0,0)"
       id="circle4290"
       r="3.2257435"
       cy="24.437557"
       cx="-7.6127687"
       style="fill:#666666;fill-opacity:1" /></g></svg>