<?xml version="1.0" encoding="UTF-8" standalone="no"?>
<!-- Generator: Adobe Illustrator 15.1.0, SVG Export Plug-In . SVG Version: 6.00 Build 0)  -->

<svg
   xmlns:dc="http://purl.org/dc/elements/1.1/"
   xmlns:cc="http://creativecommons.org/ns#"
   xmlns:rdf="http://www.w3.org/1999/02/22-rdf-syntax-ns#"
   xmlns:svg="http://www.w3.org/2000/svg"
   xmlns="http://www.w3.org/2000/svg"
   xmlns:sodipodi="http://sodipodi.sourceforge.net/DTD/sodipodi-0.dtd"
   xmlns:inkscape="http://www.inkscape.org/namespaces/inkscape"
   version="1.1"
   id="Layer_1"
   x="0px"
   y="0px"
   width="40"
   height="30"
   viewBox="0 0 40 30"
   enable-background="new 0 0 128 128"
   xml:space="preserve"
   inkscape:version="0.91 r13725"
   sodipodi:docname="logo-publications.svg"><metadata
     id="metadata4334"><rdf:RDF><cc:Work
         rdf:about=""><dc:format>image/svg+xml</dc:format><dc:type
           rdf:resource="http://purl.org/dc/dcmitype/StillImage" /><dc:title></dc:title></cc:Work></rdf:RDF></metadata><defs
     id="defs4332" /><sodipodi:namedview
     pagecolor="#ffffff"
     bordercolor="#666666"
     borderopacity="1"
     objecttolerance="10"
     gridtolerance="10"
     guidetolerance="10"
     inkscape:pageopacity="0"
     inkscape:pageshadow="2"
     inkscape:window-width="1792"
     inkscape:window-height="1071"
     id="namedview4330"
     showgrid="false"
     inkscape:zoom="9.7227182"
     inkscape:cx="12.411165"
     inkscape:cy="21.940846"
     inkscape:window-x="0"
     inkscape:window-y="0"
     inkscape:window-maximized="1"
     inkscape:current-layer="Layer_1" /><path
     display="none"
     d="m 540.014,143.766 -23.653,-5.615 c -0.036,-0.008 -0.073,-0.004 -0.109,-0.012 -0.53,-0.775 -1.33,-1.363 -2.297,-1.594 l -23.654,-5.611 c -0.298,-0.07 -0.597,-0.104 -0.896,-0.104 -0.185,0 -0.365,0.021 -0.547,0.046 -7.481,-4.387 -15.773,-6.706 -24.022,-6.706 -26.375,0 -47.832,21.457 -47.832,47.831 0,26.376 21.457,47.833 47.832,47.833 8.571,0 16.98,-2.313 24.355,-6.679 0.071,0.005 0.143,0.019 0.214,0.019 0.299,0 0.6,-0.032 0.896,-0.104 l 23.654,-5.612 c 1.751,-0.418 2.985,-1.979 2.985,-3.779 l 0,-43.724 5.464,1.416 0,40.706 c 0,1.192 0.551,2.321 1.493,3.059 0.689,0.539 1.531,0.823 2.39,0.823 0.313,0 0.631,-0.039 0.942,-0.114 l 12.832,-3.212 c 1.729,-0.429 2.939,-1.984 2.939,-3.766 l 0,-51.32 c 0,-1.803 -1.236,-3.367 -2.986,-3.781 z m -43.672,19.14 -6.939,0 c -2.146,0 -3.885,1.738 -3.885,3.883 l 0,10.42 c 0,2.143 1.738,3.882 3.885,3.882 l 6.939,0 0,11.087 -6.939,0 c -2.146,0 -3.885,1.738 -3.885,3.883 l 0,2.729 -11.257,-18.668 c -0.729,-1.211 -2.014,-1.882 -3.329,-1.882 -0.684,0 -1.371,0.182 -1.999,0.559 -1.237,0.745 -2.655,1.14 -4.102,1.14 -4.378,0 -7.938,-3.563 -7.938,-7.938 0,-4.375 3.563,-7.935 7.938,-7.935 1.443,0 2.86,0.394 4.1,1.141 0.608,0.368 1.306,0.559 2.003,0.559 0.314,0 0.629,-0.039 0.938,-0.115 1,-0.248 1.859,-0.883 2.39,-1.768 l 11.257,-18.713 0,2.773 c 0,2.145 1.738,3.883 3.885,3.883 l 6.939,0 -0.001,11.08 0,0 z"
     id="path4304"
     inkscape:connector-curvature="0"
     style="display:none;fill:#ffffff" /><g
     transform="matrix(0.29490641,0,0,0.29490641,5.2546795,0.2546795)"
     id="g6574"
     style="fill:#aa8800"><g
       id="g6576"
       style="fill:#aa8800"><path
         inkscape:connector-curvature="0"
         d="m 18.737,79.603 12.388,0 1.885,0 0,12.975 c 0,0.821 0.427,1.583 1.128,2.012 0.7,0.429 1.575,0.463 2.304,0.089 l 8.073,-4.124 8.197,4.187 c 0.337,0.173 0.705,0.258 1.073,0.258 0.428,0 0.855,-0.116 1.231,-0.347 0.701,-0.429 1.128,-1.191 1.128,-2.012 l 0,-13.038 14.479,0 c 7.168,0 13,-5.831 13,-12.999 l 0,-48.604 c 0,-7.168 -5.832,-13 -13,-13 L 31.125,5 18.737,5 c -1.303,0 -2.36,1.056 -2.36,2.359 l 0,69.884 c 0,1.304 1.057,2.36 2.36,2.36 z m 32.688,9.183 -5.837,-2.981 c -0.674,-0.344 -1.473,-0.344 -2.146,0 l -5.713,2.919 0,-9.12 13.696,0 0,9.182 z M 33.484,9.719 l 37.139,0 c 4.566,0 8.28,3.715 8.28,8.281 l 0,48.604 c 0,4.566 -3.714,8.281 -8.28,8.281 l -37.139,0 0,-65.166 z m -12.387,0 7.668,0 0,65.166 -7.668,0 0,-65.166 z"
         id="path6578"
         style="fill:#aa8800" /><path
         inkscape:connector-curvature="0"
         d="m 74.186,36.259 0,-10.389 c 0,-3.578 -2.911,-6.488 -6.489,-6.488 l -23.237,0 c -3.577,0 -6.488,2.911 -6.488,6.488 l 0,10.389 c 0,3.578 2.911,6.488 6.488,6.488 l 23.236,0 c 3.579,10e-4 6.49,-2.91 6.49,-6.488 z m -4.72,0 c 0,0.976 -0.794,1.77 -1.77,1.77 l -23.236,0 c -0.976,0 -1.769,-0.794 -1.769,-1.77 l 0,-10.389 c 0,-0.976 0.793,-1.77 1.769,-1.77 l 23.236,0 c 0.976,0 1.77,0.794 1.77,1.77 l 0,10.389 z"
         id="path6580"
         style="fill:#aa8800" /></g></g></svg>