<?xml version="1.0" encoding="UTF-8" standalone="no"?>
<svg
   xmlns:dc="http://purl.org/dc/elements/1.1/"
   xmlns:cc="http://creativecommons.org/ns#"
   xmlns:rdf="http://www.w3.org/1999/02/22-rdf-syntax-ns#"
   xmlns:svg="http://www.w3.org/2000/svg"
   xmlns="http://www.w3.org/2000/svg"
   xmlns:sodipodi="http://sodipodi.sourceforge.net/DTD/sodipodi-0.dtd"
   xmlns:inkscape="http://www.inkscape.org/namespaces/inkscape"
   version="1.1"
   x="0px"
   y="0px"
   viewBox="0 0 40 30"
   enable-background="new 0 0 96 96"
   xml:space="preserve"
   id="svg4196"
   inkscape:version="0.91 r13725"
   sodipodi:docname="logo-courses.svg"
   width="40"
   height="30"><metadata
     id="metadata4216"><rdf:RDF><cc:Work
         rdf:about=""><dc:format>image/svg+xml</dc:format><dc:type
           rdf:resource="http://purl.org/dc/dcmitype/StillImage" /><dc:title></dc:title></cc:Work></rdf:RDF></metadata><defs
     id="defs4214" /><sodipodi:namedview
     pagecolor="#ffffff"
     bordercolor="#666666"
     borderopacity="1"
     objecttolerance="10"
     gridtolerance="10"
     guidetolerance="10"
     inkscape:pageopacity="0"
     inkscape:pageshadow="2"
     inkscape:window-width="1792"
     inkscape:window-height="1071"
     id="namedview4212"
     showgrid="false"
     inkscape:zoom="14.666667"
     inkscape:cx="15.499678"
     inkscape:cy="8.9901663"
     inkscape:window-x="0"
     inkscape:window-y="0"
     inkscape:window-maximized="1"
     inkscape:current-layer="svg4196" /><g
     id="g4198"
     transform="matrix(0.27698864,0,0,0.27698864,6.7045453,1.7045453)"
     style="fill:#ff2a2a;fill-opacity:1"><ellipse
       cx="85.446999"
       cy="21.375999"
       rx="7.9489999"
       ry="8.1870003"
       id="ellipse4200"
       style="fill:#ff2a2a;fill-opacity:1" /><path
       d="m 96,41.194 c 0,-4.479 -3.558,-8.142 -7.905,-8.142 l -3.979,0 c -2.306,0 -4.382,1.036 -5.831,2.672 L 63.85,20.345 c -2.158,-2.301 -5.228,-2.884 -6.82,-1.299 -1.592,1.586 -1.13,4.766 1.028,7.065 l 18.153,19.343 0,15.349 c 0,0.352 0.029,0.695 0.072,1.035 -0.041,0.332 -0.072,0.67 -0.072,1.02 l 0,27.326 c 0,3.199 1.813,5.816 4.028,5.816 2.215,0 4.028,-2.617 4.028,-5.816 l 0,-21.239 3.676,0 0,21.238 c 0,3.199 1.813,5.816 4.029,5.816 C 94.188,96 96,93.383 96,90.184 l 0,-27.327 c 0,-0.35 -0.03,-0.688 -0.071,-1.02 C 95.972,61.498 96,61.154 96,60.803 l 0,-19.609 z"
       id="path4202"
       inkscape:connector-curvature="0"
       style="fill:#ff2a2a;fill-opacity:1" /><path
       d="m 72.95,44.97 -7.839,-7.898 0,9.435 -54.984,0 0,-37.752 54.984,0 0,9.47 7.839,8.253 0,-20.663 C 72.95,2.617 70.409,0 67.303,0 L 7.936,0 C 4.83,0 2.288,2.617 2.288,5.815 l 0,43.277 -2.288,0 0,9.927 74.97,0 0,-9.927 -2.02,0 0,-4.122 z"
       id="path4204"
       inkscape:connector-curvature="0"
       style="fill:#ff2a2a;fill-opacity:1" /><rect
       x="18.768"
       y="18.153"
       width="28.898001"
       height="3.223"
       id="rect4206"
       style="fill:#ff2a2a;fill-opacity:1" /></g></svg>