<?xml version="1.0" encoding="utf-8"?>
<!-- Generator: Adobe Illustrator 15.1.0, SVG Export Plug-In . SVG Version: 6.00 Build 0)  -->
<!DOCTYPE svg PUBLIC "-//W3C//DTD SVG 1.1//EN" "http://www.w3.org/Graphics/SVG/1.1/DTD/svg11.dtd">
<svg version="1.1" id="Layer_1" xmlns="http://www.w3.org/2000/svg" xmlns:xlink="http://www.w3.org/1999/xlink" x="0px" y="0px"
	 width="30px" height="30px" viewBox="-7.5 -5 30 30" enable-background="new -7.5 -5 30 30" xml:space="preserve">
<path d="M17.431,1.532c-0.164-0.166-0.247-0.372-0.247-0.577c0-0.207,0.083-0.414,0.247-0.577c0.333-0.33,0.866-0.33,1.153,0
	c0.167,0.163,0.25,0.37,0.25,0.577c0,0.206-0.083,0.412-0.25,0.577c-0.163,0.165-0.37,0.247-0.573,0.247
	C17.804,1.779,17.598,1.697,17.431,1.532z M7.706,13.318h-9.891c-0.454,0-0.824,0.371-0.824,0.824s0.37,0.824,0.824,0.824h9.891
	c0.454,0,0.826-0.371,0.826-0.824S8.159,13.318,7.706,13.318z M6.057,16.617h-8.242c-0.454,0-0.824,0.369-0.824,0.824
	c0,0.451,0.37,0.822,0.824,0.822h8.242c0.454,0,0.826-0.371,0.826-0.822C6.882,16.986,6.51,16.617,6.057,16.617z M-3.009,10.846
	V7.137c0-0.454,0.37-0.825,0.824-0.825h3.709c0.454,0,0.826,0.372,0.826,0.825v3.708c0,0.453-0.372,0.824-0.826,0.824h-3.709
	C-2.639,11.67-3.009,11.299-3.009,10.846z M-1.361,10.021H0.7V7.96h-2.061V10.021z M17.104,15.008c0.327,0.33,0.327,0.824,0,1.154
	c-0.166,0.164-0.37,0.248-0.58,0.248c-0.203,0-0.41-0.084-0.573-0.248l-1.813-1.813l-1.031,1.031
	c-0.166,0.162-0.371,0.246-0.58,0.246c-0.08,0-0.123,0-0.203-0.043c-0.29-0.08-0.494-0.287-0.577-0.576l-1.194-4.41
	c-0.086-0.288,0-0.577,0.204-0.783c0.207-0.205,0.494-0.289,0.784-0.205l4.411,1.195c0.286,0.082,0.493,0.289,0.573,0.576
	c0.086,0.289,0,0.578-0.203,0.783l-1.03,1.031L17.104,15.008z M14.176,12.041l-1.65-0.455l0.457,1.65L14.176,12.041z M21.719-0.159
	v20.317c0,1.197-0.987,2.184-2.185,2.184H-4.535c-1.195,0-2.184-0.986-2.184-2.184V-0.159c0-1.195,0.989-2.184,2.184-2.184h24.026
	C20.731-2.342,21.719-1.354,21.719-0.159z M-5.07-0.159v2.761h25.142v-2.761c0-0.289-0.247-0.535-0.537-0.535H-4.535
	C-4.823-0.694-5.07-0.447-5.07-0.159z M20.071,20.201V4.251H-5.07v15.95c0,0.289,0.247,0.537,0.535,0.537h24.026
	C19.824,20.738,20.071,20.49,20.071,20.201z"/>
</svg>
