<?xml version="1.0" encoding="UTF-8" standalone="no"?>
<!-- Created with Inkscape (http://www.inkscape.org/) -->

<svg
   xmlns:dc="http://purl.org/dc/elements/1.1/"
   xmlns:cc="http://creativecommons.org/ns#"
   xmlns:rdf="http://www.w3.org/1999/02/22-rdf-syntax-ns#"
   xmlns:svg="http://www.w3.org/2000/svg"
   xmlns="http://www.w3.org/2000/svg"
   xmlns:sodipodi="http://sodipodi.sourceforge.net/DTD/sodipodi-0.dtd"
   xmlns:inkscape="http://www.inkscape.org/namespaces/inkscape"
   id="svg3390"
   version="1.1"
   inkscape:version="0.91 r13725"
   width="77.5"
   height="118.75"
   viewBox="0 0 77.5 118.75"
   sodipodi:docname="clients.svg"
   inkscape:export-filename="/home/ciro-maciel/Documents/C37-Website/www/assets/images/clients.png"
   inkscape:export-xdpi="90"
   inkscape:export-ydpi="90">
  <metadata
     id="metadata3396">
    <rdf:RDF>
      <cc:Work
         rdf:about="">
        <dc:format>image/svg+xml</dc:format>
        <dc:type
           rdf:resource="http://purl.org/dc/dcmitype/StillImage" />
        <dc:title />
      </cc:Work>
    </rdf:RDF>
  </metadata>
  <defs
     id="defs3394" />
  <sodipodi:namedview
     pagecolor="#ffffff"
     bordercolor="#666666"
     borderopacity="1"
     objecttolerance="10"
     gridtolerance="10"
     guidetolerance="10"
     inkscape:pageopacity="0"
     inkscape:pageshadow="2"
     inkscape:window-width="1920"
     inkscape:window-height="1031"
     id="namedview3392"
     showgrid="false"
     inkscape:zoom="3.6126316"
     inkscape:cx="-44.945058"
     inkscape:cy="53.211321"
     inkscape:window-x="0"
     inkscape:window-y="0"
     inkscape:window-maximized="1"
     inkscape:current-layer="svg3390" />
  <path
     inkscape:connector-curvature="0"
     d="m 61.170389,71.096407 -5.34472,-14.694523 c -0.05987,-0.2297 -0.212429,-0.42486 -0.420254,-0.538847 -0.2084,-0.113986 -0.455372,-0.136439 -0.681043,-0.0639 l -9.844899,3.866922 c -1.668929,-0.934347 -7.990021,-4.420733 -9.972126,-4.750605 -0.327568,-0.05469 -0.679316,-0.08233 -1.044304,-0.08233 -1.723044,0 -3.377006,0.610233 -3.815683,0.784667 -1.017822,0.119744 -6.403416,0.820361 -10.02912,2.633214 -3.158819,-1.628056 -5.670561,-3.501356 -5.696466,-3.520354 -0.191131,-0.142771 -0.43292,-0.202068 -0.666651,-0.159466 -0.234882,0.04087 -0.442131,0.177312 -0.572813,0.375926 L 4.443486,68.07633 c -0.255031,0.38744 -0.158315,0.90729 0.219338,1.177288 l 10.90014,7.785071 c -0.376502,0.876781 -0.396075,1.75759 -0.04548,2.554923 0.602173,1.370724 2.104728,2.145021 2.900909,2.471441 0.610808,2.465688 2.17381,2.850249 3.087433,2.850249 0.306268,0 0.592961,-0.04258 0.842812,-0.10132 0.872172,1.930866 2.074216,2.364363 2.977476,2.363788 0,0 0,0 5.75e-4,0 0.464583,0 0.879081,-0.117439 1.208952,-0.257907 0.538272,0.60217 1.495647,1.402383 2.888244,1.576241 0.14565,0.01846 0.283241,0.0265 0.41162,0.0265 0.843388,0 1.364389,-0.356929 1.65281,-0.656866 0.393197,-0.408737 0.558995,-0.913625 0.628079,-1.298185 l 1.923384,1.348844 0.05182,0.03339 c 0.169251,0.101899 1.379929,0.800211 2.667751,0.800211 0.385713,0 0.778911,-0.06219 1.151959,-0.223369 0.45019,-0.193432 1.00746,-0.591234 1.370145,-1.41044 0.734007,0.03741 1.855453,-0.03971 2.801314,-0.697163 0.718464,-0.498554 1.207801,-1.223922 1.458803,-2.160576 0.730551,-0.06333 1.827819,-0.299353 2.68963,-1.086326 0.640744,-0.585475 1.040274,-1.356909 1.192256,-2.302192 0.769124,-0.01149 1.854302,-0.182489 2.681571,-0.928589 0.790424,-0.712128 1.161169,-1.758164 1.115114,-3.10298 l 9.501787,-4.751177 c 0.364989,-0.181918 0.552089,-0.59584 0.448464,-0.990765 z m -44.073207,7.799468 c -0.16695,-0.381681 -0.140469,-0.780065 0.08348,-1.253859 0.539423,-1.141596 1.184197,-1.823788 1.725346,-1.823788 0.324691,0 0.717888,0.238333 1.137567,0.677015 -0.660894,0.822085 -1.50716,2.12315 -1.733982,3.585979 -0.498549,-0.295334 -0.998825,-0.696015 -1.212407,-1.185347 z m 2.917028,2.373575 -5.76e-4,-0.0049 c -0.233731,-1.28496 0.563027,-2.632648 1.226223,-3.496761 l 0.591811,-0.559001 c 0.377653,-0.356346 1.188802,-0.921681 1.758738,-0.921681 0.494518,0 0.757033,0.655143 0.898654,1.326398 -0.73631,0.875624 -2.495622,3.213504 -2.516348,5.513391 -0.141044,0.03454 -0.300511,0.06104 -0.467462,0.06104 -0.284966,5.82e-4 -1.152533,5.82e-4 -1.49104,-1.918199 z m 5.311905,4.181824 c -0.774881,5.74e-4 -1.292427,-0.972923 -1.603877,-1.852001 l 0.0057,-8.2e-4 c -0.312025,-1.714987 1.415049,-4.115044 2.222167,-5.035577 0.135288,-0.06046 0.410468,-0.16234 0.732856,-0.16234 0.519274,0 0.971767,0.288993 1.355177,0.847993 -0.370745,0.189405 -0.710978,0.465156 -1.010914,0.824391 -1.004581,1.204348 -1.46571,3.277987 -1.208952,5.271029 -0.149679,0.05874 -0.318357,0.107653 -0.492216,0.107653 z m 5.169134,0.596993 c 0,0.135858 -0.07254,0.466879 -0.226823,0.62405 -0.03051,0.03052 -0.137014,0.123773 -0.419679,0.123773 -0.0616,0 -0.134712,-0.0049 -0.20437,-0.01263 -1.168654,-0.146227 -1.879058,-1.054667 -2.069036,-1.330426 -0.288997,-1.588334 0.03741,-3.385639 0.779486,-4.274512 0.284392,-0.341383 0.592963,-0.507177 0.94471,-0.507759 0.115714,0.0049 1.016095,0.09326 1.473771,1.632085 l -0.302239,3.64298 0.02418,0.05644 0,0.04602 z m 18.457817,-7.393605 c -0.495095,0.449035 -1.301063,0.511787 -1.813428,0.485879 l -6.58188,-5.969918 c -0.352323,-0.318933 -0.899229,-0.293603 -1.21989,0.05987 -0.32066,0.352895 -0.293602,0.899804 0.05987,1.219889 l 6.349876,5.76037 c -0.04375,0.730554 -0.262515,1.301639 -0.674135,1.68044 -0.546906,0.503731 -1.312576,0.627504 -1.771978,0.65456 l -6.182926,-5.905441 c -0.345414,-0.328716 -0.89117,-0.316631 -1.221041,0.02823 -0.329296,0.345419 -0.316631,0.891744 0.02821,1.221042 l 5.984888,5.716619 c -0.131833,0.634412 -0.390894,1.09842 -0.805968,1.389717 -0.407014,0.284964 -0.89923,0.375929 -1.318909,0.396078 -0.02245,-0.02764 -0.03396,-0.06046 -0.05987,-0.0852 l -5.383868,-5.107541 c -0.345415,-0.327568 -0.892322,-0.314327 -1.221041,0.03224 -0.328145,0.345994 -0.313752,0.89232 0.03224,1.220469 l 4.702247,4.46103 -0.01612,0.07425 c -0.169829,0.76337 -0.499124,0.906143 -0.60793,0.952774 -0.673558,0.293594 -1.839334,-0.232582 -2.228501,-0.456525 l -2.704022,-1.895753 0.221641,-2.437475 -0.03858,-0.147384 C 31.971316,80.072009 30.807843,79.274101 29.901704,79.031158 28.917848,76.992632 27.4838,76.673703 26.68359,76.673703 c -0.22855,0 -0.443859,0.0242 -0.639018,0.06161 -0.573383,-1.866391 -1.74434,-2.174383 -2.454166,-2.174383 -0.846268,0 -1.66375,0.432348 -2.225048,0.818631 C 20.573206,74.52466 19.74824,74.09232 18.90658,74.09232 c -0.911895,0 -1.748375,0.501999 -2.469717,1.449589 L 6.342691,68.331361 14.030474,56.645977 c 1.062726,0.74034 3.152486,2.121423 5.606083,3.347645 0.252728,0.126653 0.551512,0.121471 0.799635,-0.01439 1.872148,-1.021276 4.469668,-1.697714 6.542732,-2.113939 -0.528483,0.487611 -1.130657,1.074816 -1.821487,1.795582 -2.821463,2.945236 -1.592362,4.731031 -1.412746,4.961884 0.693707,0.804816 1.643599,1.230252 2.747198,1.229677 2.420784,0 5.094295,-2.054067 5.865721,-2.691933 l 2.090335,-0.232005 c 1.422534,4.909497 6.957806,7.017103 8.145458,7.416633 l 6.763798,6.763225 c 0.03915,0.03913 0.08923,0.05932 0.133561,0.08865 -0.02188,0.655717 -0.198039,1.148504 -0.537696,1.457653 z m 1.1865,-3.207178 -6.470772,-6.470198 c -0.101322,-0.101322 -0.22567,-0.175585 -0.362686,-0.216459 -0.0639,-0.01957 -6.417231,-1.979804 -7.345821,-6.933628 -0.07771,-0.412195 -0.437526,-0.704646 -0.848569,-0.704646 -0.03167,0 -0.06332,0.0018 -0.09614,0.0052 l -3.109885,0.345414 c -0.176737,0.01957 -0.343688,0.09384 -0.477248,0.211279 -0.768548,0.67874 -3.154213,2.440932 -4.936555,2.440932 -0.584326,0 -1.028184,-0.18307 -1.390294,-0.575691 -0.06045,-0.152559 -0.297057,-1.024731 1.30279,-2.694236 2.918755,-3.045983 4.155341,-3.583103 4.152462,-3.583103 0.019,-0.0063 0.03742,-0.01382 0.05584,-0.02188 0.01612,-0.0069 1.632661,-0.691406 3.249202,-0.691406 0.270575,0 0.526182,0.01957 0.760489,0.05872 1.409868,0.234883 6.595696,2.961932 9.737243,4.737365 0.210129,0.119743 0.461706,0.144497 0.69083,0.07023 l 9.335985,-3.701683 4.935403,13.133247 -9.182278,4.590565 z"
     id="path3462"
     inkscape:export-xdpi="90"
     inkscape:export-ydpi="90"
     style="fill:#3a4854;fill-opacity:1" />
</svg>
