<?xml version="1.0" encoding="UTF-8" standalone="no"?>
<!-- Created with Inkscape (http://www.inkscape.org/) -->

<svg
   xmlns:dc="http://purl.org/dc/elements/1.1/"
   xmlns:cc="http://creativecommons.org/ns#"
   xmlns:rdf="http://www.w3.org/1999/02/22-rdf-syntax-ns#"
   xmlns:svg="http://www.w3.org/2000/svg"
   xmlns="http://www.w3.org/2000/svg"
   xmlns:sodipodi="http://sodipodi.sourceforge.net/DTD/sodipodi-0.dtd"
   xmlns:inkscape="http://www.inkscape.org/namespaces/inkscape"
   id="svg3390"
   version="1.1"
   inkscape:version="0.91 r13725"
   width="77.5"
   height="118.75"
   viewBox="0 0 77.5 118.75"
   sodipodi:docname="clients.svg"
   inkscape:export-filename="/home/ciro-maciel/Documents/C37-Website/www/assets/images/clients.png"
   inkscape:export-xdpi="90"
   inkscape:export-ydpi="90">
  <metadata
     id="metadata3396">
    <rdf:RDF>
      <cc:Work
         rdf:about="">
        <dc:format>image/svg+xml</dc:format>
        <dc:type
           rdf:resource="http://purl.org/dc/dcmitype/StillImage" />
        <dc:title />
      </cc:Work>
    </rdf:RDF>
  </metadata>
  <defs
     id="defs3394" />
  <sodipodi:namedview
     pagecolor="#ffffff"
     bordercolor="#666666"
     borderopacity="1"
     objecttolerance="10"
     gridtolerance="10"
     guidetolerance="10"
     inkscape:pageopacity="0"
     inkscape:pageshadow="2"
     inkscape:window-width="1920"
     inkscape:window-height="1031"
     id="namedview3392"
     showgrid="false"
     inkscape:zoom="3.6126316"
     inkscape:cx="-44.945058"
     inkscape:cy="53.211321"
     inkscape:window-x="0"
     inkscape:window-y="0"
     inkscape:window-maximized="1"
     inkscape:current-layer="svg3390" />
  <path
     inkscape:connector-curvature="0"
     d="M 73.392325,73.231593 66.877513,55.320072 C 66.804533,55.040084 66.618577,54.8022 66.365254,54.663258 66.11123,54.524317 65.81019,54.496949 65.535114,54.585368 l -12.000193,4.713484 c -2.0343,-1.138899 -9.739237,-5.388543 -12.155275,-5.790632 -0.399281,-0.06666 -0.828035,-0.100346 -1.272928,-0.100346 -2.100262,0 -4.116317,0.743828 -4.651031,0.95645 -1.240649,0.145959 -7.805284,0.999958 -12.224746,3.209689 -3.850363,-1.984477 -6.911988,-4.267889 -6.943565,-4.291046 -0.232973,-0.174028 -0.527697,-0.246306 -0.812597,-0.194378 -0.286304,0.04982 -0.538925,0.216131 -0.698216,0.458226 L 4.2464836,69.550346 c -0.310864,0.472261 -0.192974,1.105918 0.267357,1.435027 L 17.800294,80.47479 c -0.458928,1.06873 -0.482786,2.14237 -0.05544,3.11426 0.734004,1.67081 2.565506,2.61462 3.535991,3.0125 0.74453,3.00549 2.649712,3.47424 3.763349,3.47424 0.373318,0 0.722776,-0.0519 1.027325,-0.1235 1.063113,2.35358 2.528314,2.88198 3.62932,2.88128 0,0 0,0 7.02e-4,0 0.566291,0 1.071533,-0.14315 1.473621,-0.31437 0.656113,0.734 1.823081,1.7094 3.520553,1.92132 0.177536,0.0225 0.345249,0.0323 0.501733,0.0323 1.028027,0 1.663088,-0.43507 2.014652,-0.80067 0.479278,-0.49822 0.681374,-1.11364 0.765581,-1.58239 l 2.344462,1.64414 0.06316,0.0407 c 0.206307,0.12421 1.682033,0.9754 3.251792,0.9754 0.470155,0 0.949433,-0.0758 1.404151,-0.27227 0.548748,-0.23578 1.228018,-0.72067 1.670104,-1.71922 0.894699,0.0456 2.261659,-0.0484 3.414592,-0.84979 0.875753,-0.6077 1.472219,-1.49187 1.778171,-2.63358 0.890488,-0.0772 2.227975,-0.36489 3.278457,-1.32415 0.78102,-0.71365 1.268017,-1.65397 1.453272,-2.8062 0.937504,-0.014 2.260255,-0.22244 3.268633,-1.13188 0.963468,-0.86803 1.415379,-2.14307 1.359241,-3.7823 l 11.581966,-5.791328 c 0.444893,-0.221745 0.672954,-0.726285 0.546643,-1.207669 z M 19.67039,82.73856 c -0.2035,-0.46524 -0.17122,-0.95084 0.101751,-1.52836 0.657516,-1.39152 1.443447,-2.22306 2.103068,-2.22306 0.395773,0 0.875051,0.29051 1.386608,0.82523 -0.80558,1.00206 -1.837115,2.58796 -2.113594,4.37104 -0.607694,-0.35999 -1.217493,-0.84839 -1.477833,-1.44485 z m 3.555639,2.89321 -7.02e-4,-0.006 c -0.2849,-1.56627 0.686287,-3.209 1.494674,-4.26229 l 0.721373,-0.68138 c 0.460331,-0.43436 1.449061,-1.12346 2.143769,-1.12346 0.602781,0 0.922768,0.79857 1.095392,1.61678 -0.897506,1.06732 -3.041976,3.91702 -3.067239,6.72041 -0.171922,0.0421 -0.3663,0.0744 -0.5698,0.0744 -0.347354,7.1e-4 -1.404853,7.1e-4 -1.817467,-2.33814 z m 6.474814,5.09733 c -0.944522,7e-4 -1.575372,-1.18592 -1.955005,-2.25745 l 0.007,-10e-4 c -0.380335,-2.09044 1.724839,-5.01593 2.708656,-6.13799 0.164906,-0.0737 0.50033,-0.19788 0.893296,-0.19788 0.632956,0 1.184511,0.35226 1.65186,1.03364 -0.451911,0.23087 -0.86663,0.56699 -1.232229,1.00487 -1.224509,1.46801 -1.78659,3.99562 -1.473622,6.42499 -0.182448,0.0716 -0.388053,0.13122 -0.599974,0.13122 z m 6.300786,0.72769 c 0,0.1656 -0.08842,0.56909 -0.27648,0.76067 -0.03719,0.0372 -0.16701,0.15087 -0.511557,0.15087 -0.07508,0 -0.164204,-0.006 -0.249112,-0.0154 -1.424502,-0.17824 -2.29043,-1.28556 -2.521999,-1.62169 -0.352266,-1.93606 0.04561,-4.12684 0.950135,-5.21031 0.346652,-0.41612 0.722777,-0.61821 1.15153,-0.61892 0.141047,0.006 1.238544,0.11368 1.796416,1.98939 l -0.368406,4.44052 0.02947,0.0688 0,0.0561 z m 22.498695,-9.01225 c -0.603483,0.54734 -1.585897,0.62383 -2.210432,0.59225 l -8.022818,-7.276883 c -0.429456,-0.388755 -1.096094,-0.357879 -1.486955,0.07298 -0.39086,0.430153 -0.357879,1.096793 0.07298,1.486953 l 7.740023,7.02146 c -0.05333,0.89049 -0.319987,1.5866 -0.82172,2.04833 -0.666638,0.61401 -1.599932,0.76488 -2.159908,0.79786 L 44.074971,79.9892 c -0.421035,-0.40068 -1.08627,-0.38595 -1.488358,0.0344 -0.401387,0.42104 -0.385949,1.08697 0.03438,1.48836 l 7.29513,6.96813 c -0.160695,0.7733 -0.476471,1.33889 -0.982415,1.69396 -0.496119,0.34735 -1.096094,0.45823 -1.607651,0.48279 -0.02737,-0.0337 -0.0414,-0.0737 -0.07298,-0.10386 l -6.562529,-6.2257 c -0.421035,-0.39928 -1.087673,-0.38314 -1.488358,0.0393 -0.399983,0.42174 -0.38244,1.08767 0.0393,1.48766 l 5.731687,5.43766 -0.01965,0.0905 c -0.207009,0.93049 -0.608395,1.10452 -0.741021,1.16136 -0.821018,0.35787 -2.242011,-0.2835 -2.716376,-0.55647 l -3.296001,-2.31078 0.270164,-2.9711 -0.04702,-0.17965 c -0.622429,-2.35358 -2.040615,-3.32617 -3.14513,-3.6223 -1.199247,-2.48481 -2.947243,-2.87356 -3.92264,-2.87356 -0.278585,0 -0.54103,0.0295 -0.778915,0.0751 -0.698911,-2.27499 -2.126219,-2.65041 -2.991445,-2.65041 -1.031536,0 -2.027985,0.527 -2.712166,0.99785 -0.965573,-1.04206 -1.971145,-1.56905 -2.997066,-1.56905 -1.111532,0 -2.131138,0.6119 -3.010399,1.76694 L 6.5614726,69.86121 15.932303,55.617604 c 1.295384,0.902418 3.842644,2.585855 6.833395,4.080528 0.308057,0.15438 0.672252,0.148064 0.974695,-0.01754 2.282009,-1.244859 5.448191,-2.069386 7.975101,-2.576733 -0.644183,0.594361 -1.378187,1.31012 -2.220257,2.18868 -3.439152,3.590022 -1.94097,5.766772 -1.722032,6.048164 0.845578,0.981011 2.003424,1.499585 3.34863,1.498884 2.950753,0 6.209562,-2.503754 7.149873,-3.281265 l 2.547962,-0.282795 c 1.733962,5.984308 8.481044,8.553322 9.928702,9.040319 l 8.244563,8.243864 c 0.04772,0.0477 0.108767,0.0723 0.1628,0.10806 -0.02667,0.79927 -0.241393,1.39994 -0.655411,1.77677 z m 1.446255,-3.90931 -7.887385,-7.886685 c -0.123504,-0.123504 -0.275076,-0.214026 -0.442087,-0.263848 -0.07789,-0.02386 -7.822124,-2.413232 -8.954006,-8.451572 -0.09473,-0.502435 -0.533311,-0.858911 -1.034342,-0.858911 -0.0386,0 -0.07719,0.0021 -0.117188,0.0063 l -3.790717,0.421035 c -0.215429,0.02386 -0.41893,0.114381 -0.58173,0.257533 -0.936802,0.827333 -3.844749,2.975313 -6.017289,2.975313 -0.71225,0 -1.25328,-0.223149 -1.694665,-0.701725 -0.07368,-0.185957 -0.36209,-1.24907 1.588003,-3.284071 3.557744,-3.712825 5.065049,-4.367534 5.06154,-4.367534 0.02316,-0.0077 0.04561,-0.01684 0.06807,-0.02667 0.01965,-0.0084 1.990092,-0.842771 3.960534,-0.842771 0.329811,0 0.641377,0.02386 0.926979,0.07158 1.718523,0.286304 8.039659,3.610373 11.86897,5.774492 0.25613,0.145958 0.562784,0.176132 0.84207,0.08561 l 11.379866,-4.512074 6.015885,16.008444 -11.192508,5.595554 z"
     id="path3462"
     inkscape:export-xdpi="90"
     inkscape:export-ydpi="90"
     style="fill:#3a4854;fill-opacity:1" />
</svg>
