<?xml version="1.0" encoding="UTF-8" standalone="no"?>
<!-- Created with Inkscape (http://www.inkscape.org/) -->

<svg
   xmlns:dc="http://purl.org/dc/elements/1.1/"
   xmlns:cc="http://creativecommons.org/ns#"
   xmlns:rdf="http://www.w3.org/1999/02/22-rdf-syntax-ns#"
   xmlns:svg="http://www.w3.org/2000/svg"
   xmlns="http://www.w3.org/2000/svg"
   xmlns:sodipodi="http://sodipodi.sourceforge.net/DTD/sodipodi-0.dtd"
   xmlns:inkscape="http://www.inkscape.org/namespaces/inkscape"
   id="svg3390"
   version="1.1"
   inkscape:version="0.91 r13725"
   width="77.5"
   height="118.75"
   viewBox="0 0 77.5 118.75"
   sodipodi:docname="clients.svg"
   inkscape:export-filename="/home/ciro-maciel/Documents/C37-Website/www/assets/images/clients.png"
   inkscape:export-xdpi="90"
   inkscape:export-ydpi="90">
  <metadata
     id="metadata3396">
    <rdf:RDF>
      <cc:Work
         rdf:about="">
        <dc:format>image/svg+xml</dc:format>
        <dc:type
           rdf:resource="http://purl.org/dc/dcmitype/StillImage" />
        <dc:title />
      </cc:Work>
    </rdf:RDF>
  </metadata>
  <defs
     id="defs3394" />
  <sodipodi:namedview
     pagecolor="#ffffff"
     bordercolor="#666666"
     borderopacity="1"
     objecttolerance="10"
     gridtolerance="10"
     guidetolerance="10"
     inkscape:pageopacity="0"
     inkscape:pageshadow="2"
     inkscape:window-width="1920"
     inkscape:window-height="1031"
     id="namedview3392"
     showgrid="false"
     inkscape:zoom="3.6126316"
     inkscape:cx="-44.945058"
     inkscape:cy="53.211321"
     inkscape:window-x="0"
     inkscape:window-y="0"
     inkscape:window-maximized="1"
     inkscape:current-layer="svg3390" />
  <path
     inkscape:connector-curvature="0"
     d="M 71.041816,74.691634 64.969039,57.995423 c -0.06803,-0.26099 -0.241367,-0.482734 -0.477502,-0.612248 -0.236788,-0.129514 -0.517402,-0.155025 -0.773814,-0.07261 L 52.531752,61.70424 c -1.896271,-1.061624 -9.078422,-5.022926 -11.33053,-5.397733 -0.372189,-0.06214 -0.771852,-0.09354 -1.186559,-0.09354 -1.957757,0 -3.837022,0.693359 -4.335455,0.891554 -1.15647,0.136056 -7.275689,0.932111 -11.395287,2.99191 -3.589113,-1.849829 -6.443005,-3.97831 -6.472439,-3.999896 -0.217166,-0.16222 -0.491892,-0.229594 -0.757462,-0.181189 -0.266878,0.04644 -0.502358,0.201466 -0.650841,0.427135 L 6.5875739,71.260162 c -0.2897717,0.440218 -0.1798806,1.030881 0.2492166,1.337659 l 12.3849565,8.845553 c -0.427789,0.996216 -0.450028,1.997009 -0.05168,2.902955 0.684201,1.557444 2.391434,2.437216 3.296071,2.8081 0.694013,2.801565 2.469927,3.23851 3.508003,3.23851 0.347988,0 0.673735,-0.04838 0.95762,-0.115121 0.99098,2.193888 2.356766,2.686436 3.383068,2.685783 0,0 0,0 6.54e-4,0 0.527868,0 0.998829,-0.133437 1.373635,-0.293039 0.611595,0.684197 1.699384,1.593415 3.281681,1.790956 0.16549,0.02097 0.321824,0.03011 0.46769,0.03011 0.958275,0 1.550246,-0.40555 1.877956,-0.746344 0.446759,-0.464415 0.635142,-1.038079 0.713636,-1.475024 l 2.185388,1.532584 0.05888,0.03794 c 0.192306,0.11578 1.567903,0.909216 3.031152,0.909216 0.438255,0 0.885014,-0.07066 1.308879,-0.253796 0.511515,-0.219782 1.144696,-0.671772 1.556786,-1.60257 0.833993,0.04251 2.108203,-0.04512 3.182909,-0.792131 0.816333,-0.566467 1.372328,-1.390645 1.657521,-2.45489 0.830067,-0.07196 2.076805,-0.340131 3.056011,-1.234305 0.728027,-0.665228 1.181981,-1.541747 1.354666,-2.615797 0.873894,-0.01305 2.106895,-0.207347 3.046854,-1.055081 0.898096,-0.809134 1.319344,-1.997661 1.267015,-3.525668 L 70.532263,75.81738 c 0.414707,-0.206699 0.627294,-0.677006 0.509553,-1.125728 z m -50.07686,8.861912 c -0.189692,-0.433674 -0.159603,-0.886325 0.09485,-1.42466 0.612903,-1.297104 1.345508,-2.072224 1.960373,-2.072224 0.36892,0 0.815678,0.270799 1.292526,0.769238 -0.750921,0.934069 -1.712466,2.412365 -1.970185,4.074461 -0.566462,-0.335564 -1.134885,-0.790826 -1.377561,-1.346815 z m 3.314386,2.696903 -6.54e-4,-0.0056 c -0.26557,-1.459997 0.639722,-2.991267 1.393259,-3.97309 l 0.672427,-0.635148 c 0.429097,-0.404888 1.350741,-1.047232 1.998313,-1.047232 0.561882,0 0.860157,0.744386 1.021069,1.50708 -0.83661,0.994901 -2.835576,3.651247 -2.859125,6.264425 -0.160257,0.03924 -0.341446,0.06935 -0.531139,0.06935 -0.323785,6.61e-4 -1.309532,6.61e-4 -1.69415,-2.179496 z m 6.035493,4.751472 c -0.880436,6.53e-4 -1.468482,-1.105454 -1.822357,-2.10428 l 0.0065,-9.32e-4 c -0.354529,-1.948602 1.607807,-4.675595 2.524871,-5.721523 0.153717,-0.0687 0.466382,-0.184454 0.832685,-0.184454 0.59001,0 1.104141,0.328359 1.53978,0.963507 -0.421248,0.215205 -0.807828,0.528519 -1.148621,0.936689 -1.141425,1.368404 -1.665369,3.724514 -1.373636,5.989049 -0.170068,0.06674 -0.361723,0.122317 -0.559265,0.122317 z m 5.873273,0.678316 c 0,0.154364 -0.08242,0.530477 -0.257721,0.709058 -0.03467,0.03468 -0.155678,0.140633 -0.476847,0.140633 -0.06999,0 -0.153063,-0.0056 -0.23221,-0.01435 -1.327848,-0.166146 -2.135023,-1.198334 -2.350879,-1.511657 -0.328365,-1.804697 0.04251,-3.846831 0.885667,-4.856786 0.323132,-0.387886 0.673736,-0.576264 1.073398,-0.576926 0.131477,0.0056 1.154508,0.105966 1.674528,1.854408 l -0.34341,4.139227 0.02747,0.06413 0,0.05229 z m 20.972141,-8.400762 c -0.562536,0.510203 -1.478293,0.581503 -2.060453,0.552065 L 47.621333,77.0484 c -0.400317,-0.362378 -1.021723,-0.333597 -1.386064,0.06803 -0.36434,0.400967 -0.333597,1.022375 0.06803,1.386062 l 7.214856,6.545048 c -0.04971,0.83007 -0.298275,1.478948 -0.765965,1.90935 -0.621406,0.572349 -1.491376,0.712982 -2.013357,0.743724 l -7.025164,-6.70988 c -0.392467,-0.373494 -1.012566,-0.359763 -1.387372,0.03207 -0.374152,0.392472 -0.359762,1.013218 0.03205,1.387373 l 6.800149,6.495337 c -0.149791,0.720831 -0.444142,1.248046 -0.915757,1.579024 -0.462457,0.323782 -1.021723,0.427138 -1.498571,0.450032 -0.02551,-0.03141 -0.03859,-0.0687 -0.06803,-0.09681 L 40.55888,85.03447 c -0.392468,-0.372189 -1.013874,-0.357144 -1.387372,0.03663 -0.372844,0.393125 -0.356491,1.013871 0.03663,1.386721 l 5.342787,5.068711 -0.01832,0.08436 c -0.192963,0.867356 -0.567115,1.029578 -0.690742,1.082561 -0.765311,0.333588 -2.089889,-0.264264 -2.532068,-0.518713 l -3.072364,-2.153992 0.251833,-2.769508 -0.04383,-0.167461 c -0.580189,-2.193886 -1.90215,-3.100485 -2.931723,-3.376522 -1.117877,-2.316214 -2.747271,-2.678587 -3.656486,-2.678587 -0.259683,0 -0.504321,0.0275 -0.726065,0.07 -0.651489,-2.120631 -1.981954,-2.470578 -2.788473,-2.470578 -0.961546,0 -1.890385,0.491243 -2.528144,0.930145 -0.900058,-0.971355 -1.837401,-1.462589 -2.793712,-1.462589 -1.036114,0 -1.986539,0.570382 -2.806142,1.647052 L 8.7454891,71.549934 17.480501,58.272767 c 1.207491,0.841189 3.581918,2.410403 6.369744,3.803661 0.287155,0.143906 0.626639,0.138018 0.908561,-0.01635 2.127173,-1.160395 5.078527,-1.928977 7.433984,-2.4019 -0.600474,0.554033 -1.284676,1.221227 -2.069611,2.040176 -3.205802,3.346436 -1.809273,5.375492 -1.60519,5.637792 0.788204,0.914448 1.86749,1.397837 3.121422,1.397183 2.750543,0 5.788239,-2.333872 6.664749,-3.058628 l 2.375081,-0.263608 c 1.616311,5.578268 7.905598,7.972973 9.255032,8.426927 l 7.685163,7.684511 c 0.04448,0.04446 0.101387,0.0674 0.151754,0.100728 -0.02486,0.745039 -0.225015,1.304953 -0.610941,1.656215 z m 1.348125,-3.64406 -7.35222,-7.351568 c -0.115124,-0.115124 -0.256411,-0.199504 -0.412091,-0.245945 -0.0726,-0.02224 -7.291386,-2.249493 -8.346469,-7.878127 -0.0883,-0.468344 -0.497126,-0.800633 -0.964161,-0.800633 -0.03598,0 -0.07195,0.002 -0.109237,0.0059 l -3.533514,0.392467 c -0.200812,0.02224 -0.390505,0.10662 -0.542259,0.240059 -0.87324,0.771198 -3.58388,2.773436 -5.609012,2.773436 -0.663923,0 -1.168244,-0.208008 -1.57968,-0.654112 -0.06868,-0.17334 -0.337522,-1.16432 1.480256,-3.061245 3.316348,-3.460907 4.721381,-4.071193 4.71811,-4.071193 0.02159,-0.0072 0.04252,-0.0157 0.06345,-0.02486 0.01832,-0.0078 1.855062,-0.785589 3.691808,-0.785589 0.307433,0 0.597859,0.02224 0.864083,0.06672 1.60192,0.266879 7.494162,3.365407 11.063651,5.382689 0.238752,0.136054 0.524599,0.164181 0.784935,0.0798 l 10.607733,-4.205926 5.607703,14.922258 -10.433088,5.215892 z"
     id="path3462"
     inkscape:export-xdpi="90"
     inkscape:export-ydpi="90"
     style="fill:#3a4854;fill-opacity:1" />
</svg>
