<?xml version="1.0" encoding="utf-8"?>
<!-- Generator: Adobe Illustrator 15.1.0, SVG Export Plug-In . SVG Version: 6.00 Build 0)  -->
<!DOCTYPE svg PUBLIC "-//W3C//DTD SVG 1.1//EN" "http://www.w3.org/Graphics/SVG/1.1/DTD/svg11.dtd">
<svg version="1.1" id="Layer_1" xmlns="http://www.w3.org/2000/svg" xmlns:xlink="http://www.w3.org/1999/xlink" x="0px" y="0px"
	 width="40px" height="40px" viewBox="620 380 40 40" enable-background="new 620 380 40 40" xml:space="preserve">
<g>
	<path d="M640,383c-9.388,0-17,7.612-17,17c0,9.388,7.611,17,17,17c9.388,0,17-7.611,17-17C657,390.612,649.388,383,640,383z
		 M641.344,409.129v3.041h-2.926v-2.832c-1.997-0.091-3.938-0.625-5.07-1.285l0.895-3.487c1.252,0.686,3.013,1.312,4.953,1.312
		c1.699,0,2.863-0.656,2.863-1.85c0-1.133-0.953-1.852-3.162-2.595c-3.192-1.075-5.37-2.567-5.37-5.459
		c0-2.625,1.85-4.683,5.041-5.312v-2.833h2.923v2.625c2,0.09,3.341,0.506,4.327,0.985l-0.865,3.371
		c-0.777-0.33-2.146-1.014-4.297-1.014c-1.938,0-2.565,0.833-2.565,1.669c0,0.986,1.044,1.611,3.581,2.567
		c3.55,1.251,4.982,2.892,4.982,5.576C646.653,406.264,644.771,408.531,641.344,409.129z"/>
</g>
</svg>
