<?xml version="1.0" encoding="utf-8"?>
<!-- Generator: Adobe Illustrator 15.1.0, SVG Export Plug-In . SVG Version: 6.00 Build 0)  -->
<!DOCTYPE svg PUBLIC "-//W3C//DTD SVG 1.1//EN" "http://www.w3.org/Graphics/SVG/1.1/DTD/svg11.dtd">
<svg version="1.1" id="Layer_1" xmlns="http://www.w3.org/2000/svg" xmlns:xlink="http://www.w3.org/1999/xlink" x="0px" y="0px"
	 width="40px" height="40px" viewBox="620 380 40 40" enable-background="new 620 380 40 40" xml:space="preserve">
<g>
	<path d="M657.037,412.521c-0.751,0-1.475-0.17-2.114-0.453c-0.654-0.306-1.395-0.484-2.171-0.484c-0.771,0-1.512,0.179-2.17,0.484
		c-0.636,0.283-1.359,0.453-2.108,0.453c-0.742,0-1.466-0.17-2.105-0.453c-0.663-0.306-1.402-0.484-2.171-0.484
		c-0.771,0-1.512,0.179-2.17,0.484c-0.646,0.283-1.359,0.453-2.109,0.453s-1.474-0.17-2.11-0.453
		c-0.657-0.306-1.398-0.484-2.171-0.484c-0.775,0-1.517,0.179-2.174,0.484c-0.637,0.283-1.36,0.453-2.109,0.453
		c-0.75,0-1.464-0.17-2.101-0.453c-0.667-0.306-1.407-0.484-2.171-0.484c-0.775,0-1.517,0.179-2.171,0.484
		c-0.648,0.283-1.363,0.453-2.113,0.453v-3.159c0.75,0,1.465-0.17,2.113-0.455c0.654-0.304,1.396-0.482,2.171-0.482
		c0.764,0,1.504,0.179,2.171,0.482c0.637,0.285,1.351,0.455,2.101,0.455c0.749,0,1.473-0.17,2.109-0.455
		c0.657-0.304,1.398-0.482,2.174-0.482c0.772,0,1.513,0.179,2.171,0.482c0.637,0.285,1.36,0.455,2.11,0.455s1.464-0.17,2.109-0.455
		c0.658-0.304,1.398-0.482,2.17-0.482c0.769,0,1.508,0.179,2.171,0.482c0.64,0.285,1.364,0.455,2.105,0.455
		c0.749,0,1.473-0.17,2.108-0.455c0.658-0.304,1.398-0.482,2.17-0.482c0.777,0,1.517,0.179,2.171,0.482
		c0.64,0.285,1.363,0.455,2.114,0.455V412.521L657.037,412.521z"/>
	<path d="M649.341,393.249c-0.103,0.17-0.672,1.146-0.672,1.146s-0.123,0.248-0.511,0.248h-1.953l-1.115-3.313
		c0.088-0.017,0.179-0.035,0.24-0.044c0.696-0.126,0.938-0.126,1.455,0.14c0,0,2.224,1.146,2.375,1.233
		C649.349,392.752,649.466,393.026,649.341,393.249 M644.001,391.544l1.05,3.1h-7.767c-0.169,0-0.348-0.101-0.348-0.366v-0.419
		c0-0.227,0.095-0.366,0.301-0.466c0.235-0.109,1.643-0.671,2.492-0.895C641.264,392.115,642.873,391.767,644.001,391.544
		 M637.114,403.647l1.26-3.396h8.727l1.259,3.381L637.114,403.647z M658.16,403.617l-8.794,0.009l-1.269-3.4
		c1.011-0.161,2.92-0.467,4.019-0.779c0.475-0.123,0.958-0.615,1.097-0.898l2.62-3.992v5c0,0.562,0.838,0.562,0.838,0v-5.161h0.357
		c1.001,0,1.001-1.503,0-1.503h-0.357v-4.99c0-0.563-0.838-0.563-0.838,0v4.99h-0.243c-0.895-0.088-5.093-0.537-5.901-0.955
		c-0.816-0.427-1.67-0.91-2.468-1.32c-0.732-0.366-1.159-0.34-1.952-0.204c-0.448,0.086-3.089,0.579-5.648,1.229
		c-3.159,0.798-7.061,2.637-7.061,2.637l-4.458,0.018c-1.021-0.297-1.422-2.205-1.866-3.047l-1.124-2.266
		c-0.082-0.188-0.287-0.245-0.483-0.253l-2.842-0.171c-0.427-0.025-0.266,0.332-0.205,0.537l1.948,7.64
		c0.204,0.854,1.391,1.669,2.223,1.756l11.475,1.761h0.145l-1.259,3.396l-9.021,0.009c-0.223,0-0.401,0.12-0.401,0.336v0.575
		c0,0.239,0.144,0.4,0.401,0.479c0.74,0.223,2.967,0.832,5.626,1.481c0.092-0.035,0.188-0.052,0.279-0.096
		c0.841-0.392,1.729-0.589,2.641-0.589s1.805,0.197,2.628,0.58c0.519,0.241,1.091,0.357,1.652,0.357s1.115-0.116,1.634-0.349
		c0.823-0.382,1.744-0.589,2.646-0.589c0.894,0,1.813,0.207,2.623,0.58c0.529,0.241,1.1,0.357,1.653,0.357
		c0.562,0,1.132-0.116,1.633-0.349c0.833-0.382,1.744-0.589,2.646-0.589c0.854,0,1.714,0.188,2.497,0.529
		c2.191-0.724,2.968-1.317,2.968-1.317c0.17-0.14,0.283-0.283,0.283-0.506v-0.593C658.501,403.735,658.378,403.617,658.16,403.617"
		/>
</g>
</svg>
