<?xml version="1.0" encoding="UTF-8" standalone="no"?>
<svg
   xmlns:dc="http://purl.org/dc/elements/1.1/"
   xmlns:cc="http://creativecommons.org/ns#"
   xmlns:rdf="http://www.w3.org/1999/02/22-rdf-syntax-ns#"
   xmlns:svg="http://www.w3.org/2000/svg"
   xmlns="http://www.w3.org/2000/svg"
   xmlns:sodipodi="http://sodipodi.sourceforge.net/DTD/sodipodi-0.dtd"
   xmlns:inkscape="http://www.inkscape.org/namespaces/inkscape"
   version="1.1"
   x="0px"
   y="0px"
   viewBox="0 0 20 20"
   id="svg4379"
   inkscape:version="0.91 r13725"
   sodipodi:docname="icon-order.svg"
   width="20"
   height="20">
  <metadata
     id="metadata4393">
    <rdf:RDF>
      <cc:Work
         rdf:about="">
        <dc:format>image/svg+xml</dc:format>
        <dc:type
           rdf:resource="http://purl.org/dc/dcmitype/StillImage" />
        <dc:title></dc:title>
      </cc:Work>
    </rdf:RDF>
  </metadata>
  <defs
     id="defs4391" />
  <sodipodi:namedview
     pagecolor="#ffffff"
     bordercolor="#666666"
     borderopacity="1"
     objecttolerance="10"
     gridtolerance="10"
     guidetolerance="10"
     inkscape:pageopacity="0"
     inkscape:pageshadow="2"
     inkscape:window-width="1792"
     inkscape:window-height="1071"
     id="namedview4389"
     showgrid="false"
     inkscape:zoom="9.7863578"
     inkscape:cx="-3.8058953"
     inkscape:cy="8.8185859"
     inkscape:window-x="0"
     inkscape:window-y="0"
     inkscape:window-maximized="1"
     inkscape:current-layer="svg4379" />
  <g
     transform="matrix(0.2023384,0,0,0.2023384,-0.11691998,-192.81636)"
     id="g5155"
     style="fill:#000000;fill-opacity:1">
    <path
       inkscape:connector-curvature="0"
       style="color:#000000;text-indent:0;text-transform:none;direction:ltr;block-progression:tb;baseline-shift:baseline;display:inline;overflow:visible;visibility:visible;fill:#000000;fill-opacity:1;stroke:none;marker:none;enable-background:accumulate"
       d="m 49.90625,956.3644 c -0.3871,0.013 -0.74205,0.088 -1.03125,0.1875 l -39.9999995,16 c -1.10955,0.4489 -1.88743,1.6157 -1.875,2.8125 l 0,54 c 1e-5,1.1865 0.77517,2.3363 1.875,2.7812 l 39.9999995,16 c 0.7127,0.2883 1.5373,0.2883 2.25,0 l 40,-16 c 1.09983,-0.4449 1.87499,-1.5947 1.875,-2.7812 l 0,-54 c 0.0124,-1.1968 -0.76545,-2.3636 -1.875,-2.8125 l -40,-16 c -0.41241,-0.1497 -0.83165,-0.2 -1.21875,-0.1875 z m 0.0937,6.2188 31.875,12.75 L 70,980.1144 38.09375,967.3332 50,962.5832 Z m -20,8 31.875,12.75 -11.875,4.7812 -31.874999,-12.7812 11.874999,-4.75 z m -17,9.2187 34,13.59367 0,47.53133 -34,-13.625 0,-47.5 z m 74,0 0,47.5 -14,5.5937 0,-11.5312 A 3.0003,3.0003 0 0 0 69.9687,1018.3019 3.0003,3.0003 0 0 0 67,1021.3644 l 0,13.9375 -14,5.625 0,-47.53133 14,-5.59367 0,11.56247 a 3.0003,3.0003 0 1 0 6,0 l 0,-13.96877 14,-5.5937 z"
       visibility="visible"
       display="inline"
       overflow="visible"
       id="path5157" />
  </g>
</svg>
