<?xml version="1.0" encoding="UTF-8" standalone="no"?>
<!-- Generator: Adobe Illustrator 15.1.0, SVG Export Plug-In . SVG Version: 6.00 Build 0)  -->

<svg
   xmlns:dc="http://purl.org/dc/elements/1.1/"
   xmlns:cc="http://creativecommons.org/ns#"
   xmlns:rdf="http://www.w3.org/1999/02/22-rdf-syntax-ns#"
   xmlns:svg="http://www.w3.org/2000/svg"
   xmlns="http://www.w3.org/2000/svg"
   xmlns:sodipodi="http://sodipodi.sourceforge.net/DTD/sodipodi-0.dtd"
   xmlns:inkscape="http://www.inkscape.org/namespaces/inkscape"
   version="1.1"
   id="Layer_1"
   x="0px"
   y="0px"
   width="40"
   height="30"
   viewBox="0 0 40 30"
   enable-background="new 0 0 128 128"
   xml:space="preserve"
   inkscape:version="0.91 r13725"
   sodipodi:docname="logo-cam.svg"><metadata
     id="metadata4334"><rdf:RDF><cc:Work
         rdf:about=""><dc:format>image/svg+xml</dc:format><dc:type
           rdf:resource="http://purl.org/dc/dcmitype/StillImage" /><dc:title></dc:title></cc:Work></rdf:RDF></metadata><defs
     id="defs4332" /><sodipodi:namedview
     pagecolor="#ffffff"
     bordercolor="#666666"
     borderopacity="1"
     objecttolerance="10"
     gridtolerance="10"
     guidetolerance="10"
     inkscape:pageopacity="0"
     inkscape:pageshadow="2"
     inkscape:window-width="1792"
     inkscape:window-height="1071"
     id="namedview4330"
     showgrid="false"
     inkscape:zoom="6.875"
     inkscape:cx="26.131884"
     inkscape:cy="-6.4110935"
     inkscape:window-x="0"
     inkscape:window-y="0"
     inkscape:window-maximized="1"
     inkscape:current-layer="Layer_1" /><path
     display="none"
     d="m 540.014,143.766 -23.653,-5.615 c -0.036,-0.008 -0.073,-0.004 -0.109,-0.012 -0.53,-0.775 -1.33,-1.363 -2.297,-1.594 l -23.654,-5.611 c -0.298,-0.07 -0.597,-0.104 -0.896,-0.104 -0.185,0 -0.365,0.021 -0.547,0.046 -7.481,-4.387 -15.773,-6.706 -24.022,-6.706 -26.375,0 -47.832,21.457 -47.832,47.831 0,26.376 21.457,47.833 47.832,47.833 8.571,0 16.98,-2.313 24.355,-6.679 0.071,0.005 0.143,0.019 0.214,0.019 0.299,0 0.6,-0.032 0.896,-0.104 l 23.654,-5.612 c 1.751,-0.418 2.985,-1.979 2.985,-3.779 l 0,-43.724 5.464,1.416 0,40.706 c 0,1.192 0.551,2.321 1.493,3.059 0.689,0.539 1.531,0.823 2.39,0.823 0.313,0 0.631,-0.039 0.942,-0.114 l 12.832,-3.212 c 1.729,-0.429 2.939,-1.984 2.939,-3.766 l 0,-51.32 c 0,-1.803 -1.236,-3.367 -2.986,-3.781 z m -43.672,19.14 -6.939,0 c -2.146,0 -3.885,1.738 -3.885,3.883 l 0,10.42 c 0,2.143 1.738,3.882 3.885,3.882 l 6.939,0 0,11.087 -6.939,0 c -2.146,0 -3.885,1.738 -3.885,3.883 l 0,2.729 -11.257,-18.668 c -0.729,-1.211 -2.014,-1.882 -3.329,-1.882 -0.684,0 -1.371,0.182 -1.999,0.559 -1.237,0.745 -2.655,1.14 -4.102,1.14 -4.378,0 -7.938,-3.563 -7.938,-7.938 0,-4.375 3.563,-7.935 7.938,-7.935 1.443,0 2.86,0.394 4.1,1.141 0.608,0.368 1.306,0.559 2.003,0.559 0.314,0 0.629,-0.039 0.938,-0.115 1,-0.248 1.859,-0.883 2.39,-1.768 l 11.257,-18.713 0,2.773 c 0,2.145 1.738,3.883 3.885,3.883 l 6.939,0 -0.001,11.08 0,0 z"
     id="path4304"
     inkscape:connector-curvature="0"
     style="display:none;fill:#ffffff" /><g
     transform="matrix(0,0.47526375,-0.47526375,0,43.763187,-8.7631875)"
     id="g4593"><rect
       style="fill:none"
       x="44.123001"
       y="52.438"
       width="3.625"
       height="9.6879997"
       id="rect4595" /><rect
       style="fill:none"
       x="36.778999"
       y="52.438"
       width="3.625"
       height="9.6879997"
       id="rect4597" /><path
       style="fill:none"
       inkscape:connector-curvature="0"
       d="m 60.176,13.681 -20.352,0 c -5.764,0 -10.451,4.688 -10.451,10.451 l 0,51.736 c 0,5.763 4.688,10.451 10.451,10.451 l 20.352,0 c 5.764,0 10.451,-4.688 10.451,-10.451 l 0,-51.736 c 0,-5.763 -4.688,-10.451 -10.451,-10.451 z m -17.084,67.151 -8.1,0 0,-8.1 8.1,0 0,8.1 z m 10.943,0 -8.1,0 0,-8.1 8.1,0 0,8.1 z m 10.975,0 -8.102,0 0,-8.1 8.102,0 0,8.1 z m 2.179,-43.915 -2.087,0 -8.352,0 0,-3.222 c 0.82,-0.235 1.562,-0.653 2.158,-1.231 0.96,-0.932 1.562,-2.23 1.562,-3.674 0,-2.83 -2.295,-5.125 -5.125,-5.125 -2.83,0 -5.125,2.295 -5.125,5.125 0,2.27 1.486,4.173 3.53,4.847 l 0,6.28 13.439,0 0,22.147 c 0,3.438 -1.936,6.226 -4.326,6.226 l -25.758,0 c -2.389,0 -4.326,-2.788 -4.326,-6.226 l 0,-12.397 25.346,0 0,6.364 c -1.674,0.613 -2.875,2.207 -2.875,4.094 0,2.416 1.959,4.375 4.375,4.375 2.416,0 4.375,-1.959 4.375,-4.375 0,-1.887 -1.201,-3.48 -2.875,-4.094 l 0,-9.364 -28.346,0 0,-14.917 4.658,0 0,-3.875 -4.658,0 0,-2.869 c 0,-3.439 1.938,-6.227 4.326,-6.227 l 4.486,0 0,13.64 c -1.744,0.62 -3,2.269 -3,4.225 0,2.485 2.015,4.5 4.5,4.5 2.485,0 4.5,-2.015 4.5,-4.5 0,-1.956 -1.256,-3.604 -3,-4.225 l 0,-13.64 18.271,0 c 2.391,0 4.326,2.787 4.326,6.227 l 0,11.911 z"
       id="path4599" /><path
       inkscape:connector-curvature="0"
       d="m 60.176,9.5 -20.352,0 c -8.068,0 -14.633,6.563 -14.633,14.632 l 0,51.736 c 0,8.068 6.564,14.632 14.633,14.632 l 20.352,0 c 8.068,0 14.633,-6.563 14.633,-14.632 l 0,-51.736 C 74.809,16.063 68.244,9.5 60.176,9.5 Z m 10.451,66.368 c 0,5.763 -4.688,10.451 -10.451,10.451 l -20.352,0 c -5.764,0 -10.451,-4.688 -10.451,-10.451 l 0,-51.736 c 0,-5.763 4.688,-10.451 10.451,-10.451 l 20.352,0 c 5.764,0 10.451,4.688 10.451,10.451 l 0,51.736 z"
       id="path4601"
       style="fill:#ffcc00" /><rect
       x="56.908001"
       y="72.732002"
       width="8.1020002"
       height="8.1000004"
       id="rect4603"
       style="fill:#ffcc00" /><rect
       x="45.936001"
       y="72.732002"
       width="8.1000004"
       height="8.1000004"
       id="rect4605"
       style="fill:#ffcc00" /><rect
       x="34.992001"
       y="72.732002"
       width="8.1000004"
       height="8.1000004"
       id="rect4607"
       style="fill:#ffcc00" /><path
       inkscape:connector-curvature="0"
       d="m 62.863,18.779 -18.271,0 0,13.64 c 1.744,0.62 3,2.269 3,4.225 0,2.485 -2.015,4.5 -4.5,4.5 -2.485,0 -4.5,-2.015 -4.5,-4.5 0,-1.956 1.256,-3.604 3,-4.225 l 0,-13.64 -4.486,0 c -2.389,0 -4.326,2.787 -4.326,6.227 l 0,2.869 4.658,0 0,3.875 -4.658,0 0,14.917 28.346,0 0,9.364 c 1.673,0.614 2.874,2.207 2.874,4.094 0,2.416 -1.959,4.375 -4.375,4.375 -2.416,0 -4.375,-1.959 -4.375,-4.375 0,-1.887 1.201,-3.48 2.875,-4.094 l 0,-6.364 -25.346,0 0,12.397 c 0,3.438 1.938,6.226 4.326,6.226 l 25.758,0 c 2.391,0 4.326,-2.788 4.326,-6.226 l 0,-22.147 -13.439,0 0,-6.28 c -2.044,-0.674 -3.53,-2.577 -3.53,-4.847 0,-2.83 2.295,-5.125 5.125,-5.125 2.83,0 5.125,2.295 5.125,5.125 0,1.443 -0.602,2.742 -1.562,3.674 -0.597,0.578 -1.338,0.996 -2.158,1.231 l 0,3.222 8.353,0 2.087,0 0,-11.911 c -0.001,-3.44 -1.936,-6.227 -4.327,-6.227 z m -22.459,43.346 -3.625,0 0,-9.688 3.625,0 0,9.688 z m 7.344,0 -3.625,0 0,-9.688 3.625,0 0,9.688 z"
       id="path4609"
       style="fill:#ffcc00" /></g></svg>