<?xml version="1.0" encoding="UTF-8" standalone="no"?>
<!-- Generator: Adobe Illustrator 15.1.0, SVG Export Plug-In . SVG Version: 6.00 Build 0)  -->

<svg
   xmlns:dc="http://purl.org/dc/elements/1.1/"
   xmlns:cc="http://creativecommons.org/ns#"
   xmlns:rdf="http://www.w3.org/1999/02/22-rdf-syntax-ns#"
   xmlns:svg="http://www.w3.org/2000/svg"
   xmlns="http://www.w3.org/2000/svg"
   xmlns:sodipodi="http://sodipodi.sourceforge.net/DTD/sodipodi-0.dtd"
   xmlns:inkscape="http://www.inkscape.org/namespaces/inkscape"
   version="1.1"
   id="Layer_1"
   x="0px"
   y="0px"
   width="40"
   height="30"
   viewBox="0 0 40 30"
   enable-background="new 0 0 128 128"
   xml:space="preserve"
   inkscape:version="0.91 r13725"
   sodipodi:docname="logo-router-cnc.svg"><metadata
     id="metadata4334"><rdf:RDF><cc:Work
         rdf:about=""><dc:format>image/svg+xml</dc:format><dc:type
           rdf:resource="http://purl.org/dc/dcmitype/StillImage" /><dc:title></dc:title></cc:Work></rdf:RDF></metadata><defs
     id="defs4332" /><sodipodi:namedview
     pagecolor="#ffffff"
     bordercolor="#666666"
     borderopacity="1"
     objecttolerance="10"
     gridtolerance="10"
     guidetolerance="10"
     inkscape:pageopacity="0"
     inkscape:pageshadow="2"
     inkscape:window-width="1792"
     inkscape:window-height="1071"
     id="namedview4330"
     showgrid="false"
     inkscape:zoom="27.5"
     inkscape:cx="18.520018"
     inkscape:cy="17.439598"
     inkscape:window-x="0"
     inkscape:window-y="0"
     inkscape:window-maximized="1"
     inkscape:current-layer="Layer_1" /><path
     display="none"
     d="m 540.014,143.766 -23.653,-5.615 c -0.036,-0.008 -0.073,-0.004 -0.109,-0.012 -0.53,-0.775 -1.33,-1.363 -2.297,-1.594 l -23.654,-5.611 c -0.298,-0.07 -0.597,-0.104 -0.896,-0.104 -0.185,0 -0.365,0.021 -0.547,0.046 -7.481,-4.387 -15.773,-6.706 -24.022,-6.706 -26.375,0 -47.832,21.457 -47.832,47.831 0,26.376 21.457,47.833 47.832,47.833 8.571,0 16.98,-2.313 24.355,-6.679 0.071,0.005 0.143,0.019 0.214,0.019 0.299,0 0.6,-0.032 0.896,-0.104 l 23.654,-5.612 c 1.751,-0.418 2.985,-1.979 2.985,-3.779 l 0,-43.724 5.464,1.416 0,40.706 c 0,1.192 0.551,2.321 1.493,3.059 0.689,0.539 1.531,0.823 2.39,0.823 0.313,0 0.631,-0.039 0.942,-0.114 l 12.832,-3.212 c 1.729,-0.429 2.939,-1.984 2.939,-3.766 l 0,-51.32 c 0,-1.803 -1.236,-3.367 -2.986,-3.781 z m -43.672,19.14 -6.939,0 c -2.146,0 -3.885,1.738 -3.885,3.883 l 0,10.42 c 0,2.143 1.738,3.882 3.885,3.882 l 6.939,0 0,11.087 -6.939,0 c -2.146,0 -3.885,1.738 -3.885,3.883 l 0,2.729 -11.257,-18.668 c -0.729,-1.211 -2.014,-1.882 -3.329,-1.882 -0.684,0 -1.371,0.182 -1.999,0.559 -1.237,0.745 -2.655,1.14 -4.102,1.14 -4.378,0 -7.938,-3.563 -7.938,-7.938 0,-4.375 3.563,-7.935 7.938,-7.935 1.443,0 2.86,0.394 4.1,1.141 0.608,0.368 1.306,0.559 2.003,0.559 0.314,0 0.629,-0.039 0.938,-0.115 1,-0.248 1.859,-0.883 2.39,-1.768 l 11.257,-18.713 0,2.773 c 0,2.145 1.738,3.883 3.885,3.883 l 6.939,0 -0.001,11.08 0,0 z"
     id="path4304"
     inkscape:connector-curvature="0"
     style="display:none;fill:#ffffff" /><g
     transform="matrix(0.09732628,0,0,0.09732628,5.401058,0.49838428)"
     id="Layer_2"
     style="fill:#71519b;fill-opacity:1"><g
       id="g5049"
       style="fill:#71519b;fill-opacity:1"><path
         inkscape:connector-curvature="0"
         d="m 30.8,238.5 0,0 3.7,0 0,0 c -1.2,0 -2.5,0 -3.7,0 z"
         id="path5051"
         style="fill:#71519b;fill-opacity:1" /><path
         inkscape:connector-curvature="0"
         d="m 45.7,238.5 c -2.4,0 -4.8,0 -7.1,0 l 7.1,0 z"
         id="path5053"
         style="fill:#71519b;fill-opacity:1" /><path
         style="fill:#71519b;stroke:#000000;stroke-width:8;stroke-miterlimit:10;fill-opacity:1"
         inkscape:connector-curvature="0"
         stroke-miterlimit="10"
         d="M 214.5,243.5"
         id="path5055" /><path
         inkscape:connector-curvature="0"
         d="m 38.6,238.5 -7.8,0 0,0 c 1.2,0 2.4,0 3.7,0 0.4,0 0.9,0 1.3,0 0.9,0 1.8,0 2.8,0 z"
         id="path5057"
         style="fill:#71519b;fill-opacity:1" /><polygon
         style="fill:none;stroke:#71519b;stroke-width:4;stroke-miterlimit:10;fill-opacity:1;stroke-opacity:1"
         stroke-miterlimit="10"
         points="58.3,91.3 43.8,87.8 43.8,76.8 "
         id="polygon5059" /><polygon
         style="fill:none;stroke:#71519b;stroke-width:4;stroke-miterlimit:10;fill-opacity:1;stroke-opacity:1"
         stroke-miterlimit="10"
         points="57.3,66.3 49.5,53.6 57.3,45.8 "
         id="polygon5061" /><polygon
         style="fill:none;stroke:#71519b;stroke-width:4;stroke-miterlimit:10;fill-opacity:1;stroke-opacity:1"
         stroke-miterlimit="10"
         points="236,65.1 236.5,50.2 247.3,48 "
         id="polygon5063" /><polygon
         style="fill:none;stroke:#71519b;stroke-width:4;stroke-miterlimit:10;fill-opacity:1;stroke-opacity:1"
         stroke-miterlimit="10"
         points="233.3,90 242.9,78.6 252.7,83.4 "
         id="polygon5065" /><path
         inkscape:connector-curvature="0"
         d="m 166.8,130.5 0,-5 c 22,-2.5 26.7,-9.3 27.6,-10.8 l 0.4,-0.9 0,-33.4 c 12.4,-3.9 15.8,-8.8 16.6,-10.2 l 0.4,-0.9 0,-61.8 -8,0 0,9 -12.5,12.5 1.4,1.4 11.1,-11.1 0,8.7 -12.5,12.5 1.4,1.4 11.1,-11.1 0,8.7 -12.5,12.5 1.4,1.4 11.1,-11.1 0,8.7 -12.5,12.5 1.4,1.4 11.1,-11.1 0,13 c -2.3,2.2 -14.1,10.9 -56,10.9 -41.8,0 -53.5,-8.5 -56,-10.9 l 0,-59.3 -8,0 0,61.8 0.5,0.9 c 0.8,1.5 4.1,6.3 16.5,10.2 l 0,33.4 0.5,0.9 c 0.8,1.6 5.6,8.3 27.5,10.8 l 0,5 -45,0 -57.3,57.3 0,102.7 191.3,0 55.7,-55.7 0,-104.3 -106.7,0 z m 52,102.1 22.8,22.8 -10,10 -12.8,-12.8 0,-20 z m 0,-2.9 0,-19.9 34.2,34.2 -10,10 -24.2,-24.3 z m 0,-22.7 0,-17.4 1.3,-1.3 44.3,44.3 -10,10 -35.6,-35.6 z m 2.7,-20.1 10,-10 34.1,34.1 0,19.9 -44.1,-44 z m 11.4,-11.4 10,-10 22.7,22.7 0,19.9 -32.7,-32.6 z m 11.3,-11.4 10,-10 11.3,11.3 0,19.9 -21.3,-21.2 z m 21.3,-1.5 -9.9,-9.9 9.9,-9.9 0,19.8 z m -156.7,-51.3 0,-28.8 c 4.6,1 10.1,1.8 16.6,2.4 l 0,19.6 8,0 0,-19 c 4.4,0.2 9.2,0.4 14.4,0.4 5.1,0 9.7,-0.1 14,-0.3 l 0,19 8,0 0,-19.7 c 6.7,-0.6 12.3,-1.4 17,-2.4 l 0,28.8 c -2.2,1.8 -10.9,7.2 -39,7.2 -28.1,0 -36.8,-5.4 -39,-7.2 z m 58,64.2 c 0.7,0.9 1.6,1.7 2.4,2.5 l 0,38.8 c -1.5,-3.1 -2.4,-6.6 -2.4,-10.6 l 0,-30.7 z m -18.2,-25 10.3,-10.3 0,9.4 -11.7,11.7 1.4,1.4 10.3,-10.3 0,9.4 -11.7,11.7 1.4,1.4 10.3,-10.3 0,9.4 -11.7,11.7 1.4,1.4 10.3,-10.3 0,9.4 -11.7,11.7 1.4,1.4 10.3,-10.3 0,9.4 -11.7,11.6 1.4,1.4 10.3,-10.3 0,11.9 c -1.8,1.1 -5.6,2.7 -11.7,2.7 -5.9,0 -9,-1.9 -10.3,-2.9 l 0,-86.7 c 3.3,0.2 7,0.3 11,0.3 3.6,0 6.9,-0.1 10,-0.2 l -10.7,10.7 1.4,1.4 10.3,-10.3 0,9.4 -11.7,11.7 1.4,1.4 z m -17.8,67.7 c 2.1,2.1 7.1,5.6 16.4,5.6 7,0 11.9,-1.8 14.9,-3.4 3.7,7.6 10.5,13.7 20.1,18.1 l -80.5,0 c 11.1,-4.2 21.3,-10.6 29.1,-20.3 z m 40.5,2 0,-40.4 c 0.9,0.7 1.8,1.4 2.8,2.1 l 0,41.6 c -1.1,-1.1 -2,-2.2 -2.8,-3.3 z m 4.7,5.1 0,-42.1 c 1,0.6 2.1,1.3 3.2,1.9 l 0,42.7 c -1.1,-0.8 -2.2,-1.6 -3.2,-2.5 z m 5.3,3.7 0,-43 c 1.3,0.6 2.6,1.2 4,1.7 l 0,43.3 c -1.4,-0.5 -2.8,-1.2 -4,-2 z m -82.8,2.1 0,-44.1 c 1.6,-0.5 3.2,-1.1 4.8,-1.8 l 0,43.9 c -1.6,0.7 -3.2,1.4 -4.8,2 z m 6.8,-2.9 0,-43.8 c 1.5,-0.7 3,-1.4 4.5,-2.1 l 0,43.5 c -1.5,0.8 -3,1.6 -4.5,2.4 z m 6.5,-3.7 0,-43.3 c 1.1,-0.6 2.2,-1.2 3.2,-1.9 l 0,42.9 c -1.1,0.8 -2.1,1.6 -3.2,2.3 z m 5.2,-3.8 0,-42.7 c 1,-0.7 2,-1.4 3,-2.1 l 0,42.1 c -1,0.9 -2,1.8 -3,2.7 z m 5,-4.7 0,-41.7 c 0.8,-0.7 1.7,-1.4 2.5,-2.2 l 0,41 c -0.8,1 -1.6,2 -2.5,2.9 z m 4.5,-5.5 0,-40.3 c 0.8,-0.8 1.6,-1.6 2.3,-2.5 l 0,39.2 c -0.7,1.2 -1.5,2.4 -2.3,3.6 z m -39.3,-72 41.7,0 0,15.7 c -18.2,30.5 -59.5,31.7 -89,31.6 l 47.3,-47.3 z m 9.3,49.1 0,44.2 c -1.6,0.6 -3.3,1.1 -5,1.6 l 0,-44.4 c 1.7,-0.4 3.4,-0.9 5,-1.4 z m -7,1.9 0,44.4 c -2,0.5 -4,1 -6,1.4 l 0,-44.5 c 2,-0.4 4,-0.8 6,-1.3 z m -8,1.7 0,44.5 c -2.2,0.4 -4.3,0.7 -6.5,1 l 0,-44.6 c 2.2,-0.2 4.3,-0.5 6.5,-0.9 z m -8.5,1.2 0,44.6 c -2.4,0.3 -4.8,0.5 -7.2,0.7 l 0,-44.7 c 2.4,-0.1 4.8,-0.3 7.2,-0.6 z m -9.2,0.8 0,44.7 c -2.4,0.2 -4.9,0.3 -7.2,0.4 l 0,-44.7 c 2.3,-0.1 4.7,-0.2 7.2,-0.4 z m -9.3,0.5 0,44.7 c -2.9,0.1 -5.8,0.1 -8.7,0.2 l 0,-44.7 c 2.9,-0.1 5.8,-0.2 8.7,-0.2 z m -23.7,44.8 c 1.2,0 2.4,0 3.7,0 l 0,-44.7 1.3,0 c 1.8,0 3.8,0 5.7,0 0.8,0 1.6,0 2.3,0 l 0,44.7 c -1.8,0 -3.5,0 -5.2,0 l -7.8,0 0,0 z m 179.7,44 -176,0 0,-35.9 c 0.4,0 0.8,0 1.3,0 1.8,0 3.8,0 5.7,0 l 169,0 0,35.9 z m -23.2,-50.5 0,-43.5 c 0.1,0 0.1,0.1 0.2,0.1 1.6,0.6 3.2,1.1 4.8,1.6 l 0,43.7 c -1.7,-0.6 -3.4,-1.2 -5,-1.9 z m 7,2.5 0,-43.7 c 2.4,0.6 4.6,1.1 6.8,1.5 l 0,43.9 c -2.2,-0.5 -4.5,-1.1 -6.8,-1.7 z m 16.5,3.1 c -2,-0.2 -4.7,-0.5 -7.8,-1.1 l 0,-43.9 c 3.1,0.5 5.8,0.8 7.8,1 l 0,44 z m -44,-83.5 0,-15.6 91.8,0 -47.1,47.1 c -10.6,-0.9 -44.4,-6 -44.7,-31.5 z m 52,101.2 11.4,11.4 -11.4,11.4 0,-22.8 z"
         id="path5067"
         style="fill:#71519b;fill-opacity:1" /></g></g></svg>