<?xml version="1.0" encoding="UTF-8" standalone="no"?>
<!-- Generator: Adobe Illustrator 15.1.0, SVG Export Plug-In . SVG Version: 6.00 Build 0)  -->

<svg
   xmlns:dc="http://purl.org/dc/elements/1.1/"
   xmlns:cc="http://creativecommons.org/ns#"
   xmlns:rdf="http://www.w3.org/1999/02/22-rdf-syntax-ns#"
   xmlns:svg="http://www.w3.org/2000/svg"
   xmlns="http://www.w3.org/2000/svg"
   xmlns:sodipodi="http://sodipodi.sourceforge.net/DTD/sodipodi-0.dtd"
   xmlns:inkscape="http://www.inkscape.org/namespaces/inkscape"
   version="1.1"
   id="Layer_1"
   x="0px"
   y="0px"
   width="40"
   height="30"
   viewBox="0 0 40 30"
   enable-background="new 0 0 128 128"
   xml:space="preserve"
   inkscape:version="0.91 r13725"
   sodipodi:docname="logo-control.svg"><metadata
     id="metadata4334"><rdf:RDF><cc:Work
         rdf:about=""><dc:format>image/svg+xml</dc:format><dc:type
           rdf:resource="http://purl.org/dc/dcmitype/StillImage" /><dc:title /></cc:Work></rdf:RDF></metadata><defs
     id="defs4332" /><sodipodi:namedview
     pagecolor="#ffffff"
     bordercolor="#666666"
     borderopacity="1"
     objecttolerance="10"
     gridtolerance="10"
     guidetolerance="10"
     inkscape:pageopacity="0"
     inkscape:pageshadow="2"
     inkscape:window-width="1792"
     inkscape:window-height="1071"
     id="namedview4330"
     showgrid="false"
     inkscape:zoom="6.875"
     inkscape:cx="-15.468116"
     inkscape:cy="11.043452"
     inkscape:window-x="0"
     inkscape:window-y="0"
     inkscape:window-maximized="1"
     inkscape:current-layer="Layer_1" /><path
     display="none"
     d="m 540.014,143.766 -23.653,-5.615 c -0.036,-0.008 -0.073,-0.004 -0.109,-0.012 -0.53,-0.775 -1.33,-1.363 -2.297,-1.594 l -23.654,-5.611 c -0.298,-0.07 -0.597,-0.104 -0.896,-0.104 -0.185,0 -0.365,0.021 -0.547,0.046 -7.481,-4.387 -15.773,-6.706 -24.022,-6.706 -26.375,0 -47.832,21.457 -47.832,47.831 0,26.376 21.457,47.833 47.832,47.833 8.571,0 16.98,-2.313 24.355,-6.679 0.071,0.005 0.143,0.019 0.214,0.019 0.299,0 0.6,-0.032 0.896,-0.104 l 23.654,-5.612 c 1.751,-0.418 2.985,-1.979 2.985,-3.779 l 0,-43.724 5.464,1.416 0,40.706 c 0,1.192 0.551,2.321 1.493,3.059 0.689,0.539 1.531,0.823 2.39,0.823 0.313,0 0.631,-0.039 0.942,-0.114 l 12.832,-3.212 c 1.729,-0.429 2.939,-1.984 2.939,-3.766 l 0,-51.32 c 0,-1.803 -1.236,-3.367 -2.986,-3.781 z m -43.672,19.14 -6.939,0 c -2.146,0 -3.885,1.738 -3.885,3.883 l 0,10.42 c 0,2.143 1.738,3.882 3.885,3.882 l 6.939,0 0,11.087 -6.939,0 c -2.146,0 -3.885,1.738 -3.885,3.883 l 0,2.729 -11.257,-18.668 c -0.729,-1.211 -2.014,-1.882 -3.329,-1.882 -0.684,0 -1.371,0.182 -1.999,0.559 -1.237,0.745 -2.655,1.14 -4.102,1.14 -4.378,0 -7.938,-3.563 -7.938,-7.938 0,-4.375 3.563,-7.935 7.938,-7.935 1.443,0 2.86,0.394 4.1,1.141 0.608,0.368 1.306,0.559 2.003,0.559 0.314,0 0.629,-0.039 0.938,-0.115 1,-0.248 1.859,-0.883 2.39,-1.768 l 11.257,-18.713 0,2.773 c 0,2.145 1.738,3.883 3.885,3.883 l 6.939,0 -0.001,11.08 0,0 z"
     id="path4304"
     inkscape:connector-curvature="0"
     style="display:none;fill:#ffffff" /><g
     transform="matrix(1.2909091,0,0,1.2909091,4.5090908,-0.4909092)"
     id="g7323"
     style="fill:#c87137"><g
       id="g7325"
       style="fill:#c87137"><path
         style="fill:#c87137"
         inkscape:connector-curvature="0"
         d="M 21,8 16,8 16,3 C 16,2.4 15.6,2 15,2 L 9,2 C 8.4,2 8,2.4 8,3 L 8,8 3,8 C 2.5,8 2,8.4 2,9 l 0,6 c 0,0.6 0.5,1 1,1 l 5,0 0,5 c 0,0.5 0.4,1 1,1 l 6,0 c 0.6,0 1,-0.5 1,-1 l 0,-5 5,0 c 0.5,0 1,-0.4 1,-1 L 22,9 C 22,8.4 21.5,8 21,8 Z M 7,14 4,12 7,10 7,14 Z m 5,-10 2,3 -4,0 2,-3 z m 0,16 -2,-3 4,0 -2,3 z m 0,-5 c -1.7,0 -3,-1.3 -3,-3 0,-1.7 1.3,-3 3,-3 1.7,0 3,1.3 3,3 0,1.7 -1.3,3 -3,3 z m 5,-1 0,-4 3,2 -3,2 z"
         id="path7327" /></g><g
       id="g7329"
       style="fill:#c87137"><circle
         style="fill:#c87137"
         cx="12"
         cy="12"
         r="1"
         id="circle7331" /></g></g><g
     transform="matrix(0.72166938,0,0,0.72166938,-31.535503,-685.64935)"
     id="g8178"
     style="fill:#c87137"><path
       inkscape:connector-curvature="0"
       style="color:#000000;text-indent:0;text-transform:none;direction:ltr;block-progression:tb;baseline-shift:baseline;display:inline;overflow:visible;visibility:visible;fill:#c87137;fill-opacity:1;stroke:none;marker:none;enable-background:accumulate"
       d="m 6.515625,1017.3778 c -3.038351,0 -5.5,2.4616 -5.5,5.5 l 0,22.9688 c 0,3.0383 2.461649,5.5 5.5,5.5 l 22.96875,0 c 3.038351,0 5.5,-2.4617 5.5,-5.5 l 0,-22.9688 c 0,-3.0384 -2.461649,-5.5 -5.5,-5.5 l -22.96875,0 z m 11.46875,2 c 4.157587,0 7.53125,3.3737 7.53125,7.5313 0,4.1576 -3.373663,7.5312 -7.53125,7.5312 -4.157587,0 -7.53125,-3.3736 -7.53125,-7.5312 0,-4.1576 3.373663,-7.5313 7.53125,-7.5313 z m -0.03125,1.5 c -0.274647,0 -0.5,0.2254 -0.5,0.5 0,0.2746 0.225353,0.5 0.5,0.5 0.274647,0 0.5,-0.2254 0.5,-0.5 0,-0.2746 -0.225353,-0.5 -0.5,-0.5 z m 0.03125,2.5 c -1.948448,0 -3.53125,1.5829 -3.53125,3.5313 0,1.9484 1.582802,3.5312 3.53125,3.5312 1.948448,0 3.53125,-1.5828 3.53125,-3.5312 0,-1.9484 -1.582802,-3.5313 -3.53125,-3.5313 z m 0,1 c 1.408008,0 2.53125,1.1233 2.53125,2.5313 0,1.408 -1.123242,2.5312 -2.53125,2.5312 -1.408008,0 -2.53125,-1.1232 -2.53125,-2.5312 0,-1.408 1.123242,-2.5313 2.53125,-2.5313 z m -5.53125,2 c -0.274646,0 -0.5,0.2254 -0.5,0.5 0,0.2746 0.225354,0.5 0.5,0.5 0.274646,0 0.5,-0.2254 0.5,-0.5 0,-0.2746 -0.225354,-0.5 -0.5,-0.5 z m 11,0 c -0.274646,0 -0.46875,0.2254 -0.46875,0.5 0,0.2746 0.194104,0.5 0.46875,0.5 0.274646,0 0.5,-0.2254 0.5,-0.5 0,-0.2746 -0.225354,-0.5 -0.5,-0.5 z m -5.5,5.5 c -0.274647,0 -0.5,0.2254 -0.5,0.5 0,0.2746 0.225353,0.5 0.5,0.5 0.274647,0 0.5,-0.2254 0.5,-0.5 0,-0.2746 -0.225353,-0.5 -0.5,-0.5 z m -7.4375,5.5 c 3.031644,0 5.5,2.4684 5.5,5.5 0,3.0316 -2.468356,5.5 -5.5,5.5 -3.031644,0 -5.5,-2.4684 -5.5,-5.5 0,-3.0316 2.468356,-5.5 5.5,-5.5 z m 14.4375,0 c 0.184612,-0.019 0.373022,0 0.5625,0 3.031644,0 5.5,2.4684 5.5,5.5 0,3.0316 -2.468356,5.5 -5.5,5.5 -3.031644,0 -5.5,-2.4684 -5.5,-5.5 0,-2.8421 2.168321,-5.2177 4.9375,-5.5 z m -15.59375,2 a 0.50005,0.50005 0 0 0 -0.34375,0.5 l 0,6 a 0.50005,0.50005 0 0 0 0.78125,0.375 l 4,-3 a 0.50005,0.50005 0 0 0 0,-0.7812 l -4,-3 a 0.50005,0.50005 0 0 0 -0.40625,-0.094 0.50005,0.50005 0 0 0 -0.03125,0 z m 13.65625,0.9688 0,1 5,0 0,-1 -5,0 z m -13,0.5312 2.65625,2 -2.65625,2 0,-4 z m 13,1.4688 0,1 5,0 0,-1 -5,0 z m 0,2 0,1 5,0 0,-1 -5,0 z"
       visibility="visible"
       display="inline"
       overflow="visible"
       id="path8180" /></g></svg>