<?xml version="1.0" encoding="utf-8"?>
<!-- Generator: Adobe Illustrator 15.1.0, SVG Export Plug-In . SVG Version: 6.00 Build 0)  -->
<!DOCTYPE svg PUBLIC "-//W3C//DTD SVG 1.1//EN" "http://www.w3.org/Graphics/SVG/1.1/DTD/svg11.dtd">
<svg version="1.1" id="Layer_1" xmlns="http://www.w3.org/2000/svg" xmlns:xlink="http://www.w3.org/1999/xlink" x="0px" y="0px"
	 width="40px" height="40px" viewBox="620 380 40 40" enable-background="new 620 380 40 40" xml:space="preserve">
<g>
	<path d="M651.725,409.681c-0.012-0.034-0.028-0.068-0.042-0.103v-27.311c0-0.423-0.345-0.768-0.768-0.768h-21.807
		c-0.423,0-0.768,0.344-0.768,0.768v22.722l-0.003,0.003c0.001,0.002,0.002,0.002,0.003,0.004v2.786l-0.065,0.014
		c0.016,0.075,0.045,0.136,0.065,0.206v9.724c0,0.424,0.345,0.768,0.768,0.768h5.104l0.005,0.007
		c0.003-0.002,0.006-0.005,0.009-0.007h16.689c0.424,0,0.769-0.344,0.769-0.768v-8.028L651.725,409.681z M651.237,388.55
		c-0.297-1.574-1.065-3.158-1.769-4.608c-0.341-0.701-0.661-1.369-0.915-1.997h0.412c0.33,0.904,0.963,1.668,1.579,2.406
		c0.235,0.281,0.475,0.572,0.692,0.862V388.55z M651.237,405.143c-0.074-0.114-0.148-0.229-0.229-0.349
		c-0.702-1.061-1.577-2.382-1.577-3.507c0-0.898,1.01-1.741,1.806-2.375V405.143L651.237,405.143z M651.237,398.343l-0.166,0.132
		c-0.88,0.7-2.086,1.657-2.086,2.812c0,1.26,0.916,2.643,1.652,3.754c0.196,0.297,0.382,0.577,0.534,0.83l0.065-0.039v2.803
		c-0.4-0.735-0.899-1.453-1.391-2.153c-1.426-2.041-2.773-3.967-1.876-6.242c0.417-1.123,1.036-1.968,1.691-2.862l0.222-0.304
		c0.179-0.237,0.375-0.462,0.583-0.7c0.267-0.304,0.534-0.619,0.771-0.963V398.343z M651.237,382.268v2.222
		c-0.117-0.144-0.234-0.286-0.35-0.424c-0.556-0.665-1.125-1.351-1.443-2.12h1.471C651.093,381.945,651.237,382.09,651.237,382.268z
		 M644.701,381.945h1.716c0.166,0.538,0.41,1.069,0.647,1.583c0.25,0.541,0.507,1.1,0.673,1.665
		c0.092,0.355,0.212,0.715,0.338,1.096c0.257,0.781,0.524,1.588,0.556,2.367c0.013,0.26,0.007,0.392-0.003,0.459
		c-0.084-0.034-0.227-0.11-0.373-0.189c-0.984-0.583-1.53-1.388-2.044-2.414c-0.069-0.15-0.146-0.314-0.23-0.49
		C645.426,384.855,644.611,383.128,644.701,381.945z M646.215,409.918c0.545,0.647,1.062,1.257,1.508,1.894
		c1.156,1.625,2.354,4.079,2.379,6.236h-0.52c-0.406-1.143-2.59-6.108-4.23-6.506c-0.333-0.081-0.637,0.013-0.882,0.274
		c-1.188,1.292-0.9,3.031-0.646,4.565c0.098,0.587,0.186,1.146,0.202,1.666h-4.224c0.05-0.099,0.11-0.208,0.169-0.313
		c0.113-0.203,0.23-0.414,0.319-0.616c0.189-0.483,0.357-0.98,0.519-1.459c0.281-0.834,0.572-1.698,0.99-2.505
		c1.207-2.446,0.675-4.674,0.11-7.03c-0.249-1.042-0.507-2.118-0.609-3.23c-0.152-1.807,0.928-3.156,2.072-4.585
		c0.895-1.118,1.82-2.274,2.143-3.69c0.627-2.752-0.692-5.219-2.21-7.471c-0.743-1.16-1.512-2.361-2.177-3.595
		c-0.337-0.577-0.634-1.024-1.077-1.467c-0.048-0.048-0.082-0.095-0.115-0.141h2.847c-0.112,1.074,0.74,2.588,1.381,3.72
		c0.163,0.29,0.31,0.548,0.412,0.755c0.372,0.743,0.649,1.521,0.942,2.344c0.219,0.611,0.444,1.244,0.711,1.858
		c0.583,1.437,0.834,2.632,0.281,4.153c-0.259,0.707-0.647,1.287-1.06,1.901c-0.386,0.577-0.786,1.174-1.068,1.881
		c-0.501,1.167-1.142,3.101-1.298,4.717C642.9,405.993,644.585,407.989,646.215,409.918z M645.826,415.919
		c0.304,0.535,0.54,1.16,0.769,1.77c0.046,0.122,0.093,0.239,0.139,0.359h-0.905C645.625,417.457,645.631,416.581,645.826,415.919z
		 M647.013,417.532c-0.294-0.78-0.598-1.586-1.054-2.232l-0.214-0.305l-0.167,0.333c-0.369,0.737-0.45,1.886-0.213,2.72h-0.895
		c-0.015-0.554-0.106-1.132-0.208-1.738c-0.248-1.505-0.507-3.059,0.533-4.189c0.135-0.145,0.273-0.187,0.45-0.145
		c1.276,0.309,3.341,4.641,3.866,6.072h-1.902C647.144,417.878,647.078,417.707,647.013,417.532z M636.52,382.214
		c0.381,0.559,1.018,1.495,0.819,1.956c-0.067,0.161-0.258,0.268-0.563,0.319c-1.038,0.175-2.651-1.517-3.124-2.544h2.688
		C636.395,382.028,636.451,382.115,636.52,382.214z M628.787,394.28c0.648,0.907,1.459,1.705,2.25,2.478
		c1.129,1.102,2.295,2.242,2.939,3.682c0.247,0.583,0.211,0.821,0.15,0.87c-0.156,0.125-0.848-0.106-1.599-0.644
		c-1.135-0.756-2.702-1.999-3.74-3.24L628.787,394.28L628.787,394.28z M628.787,398.101c1.05,1.142,2.45,2.239,3.487,2.929
		c0.206,0.148,1.09,0.752,1.723,0.752c0.156,0,0.297-0.036,0.408-0.126c0.427-0.342,0.092-1.132-0.02-1.395
		c-0.681-1.521-1.878-2.691-3.036-3.823c-0.931-0.908-1.891-1.847-2.55-2.946l-0.013,0.007v-3.524
		c0.88,1.714,2.354,3.534,3.686,5.17c0.559,0.686,1.086,1.333,1.533,1.929c1.387,1.805,2.163,3.616,2.515,5.866
		c0.014,0.106,0.034,0.237,0.057,0.384c0.088,0.556,0.235,1.485,0.03,1.847c-0.308,0.721-0.953,0.575-1.979,0.278l-0.165-0.047
		c-1.88-0.605-3.26-1.941-4.732-3.485c-0.113-0.137-0.228-0.268-0.34-0.394c-0.22-0.25-0.425-0.489-0.604-0.747V398.101z
		 M629.056,401.818c0.109,0.123,0.222,0.25,0.342,0.396c1.525,1.599,2.948,2.976,4.937,3.615l0.169,0.049
		c0.441,0.128,0.91,0.263,1.333,0.263c0.49,0,0.918-0.182,1.17-0.771c0.271-0.474,0.12-1.421,0.011-2.113
		c-0.022-0.142-0.042-0.269-0.056-0.379c-0.365-2.333-1.167-4.206-2.602-6.071c-0.45-0.6-0.98-1.251-1.541-1.941
		c-1.55-1.904-3.303-4.06-4.031-5.959v-3.442c0.525,1.159,1.417,2.342,2.291,3.497c0.669,0.885,1.3,1.721,1.695,2.461
		c0.38,0.761,0.776,1.513,1.172,2.266c0.774,1.472,1.575,2.993,2.235,4.548c0.266,0.626,2.556,6.189,1.148,8.571
		c-0.352,0.595-0.899,0.924-1.678,1.004c-2.837,0.301-5.468-1.695-6.864-3.008v-3.299
		C628.875,401.608,628.963,401.712,629.056,401.818z M635.076,408.286c0.205,0,0.413-0.01,0.621-0.032
		c0.915-0.095,1.594-0.505,2.016-1.222c1.518-2.569-0.848-8.323-1.122-8.971c-0.667-1.572-1.472-3.102-2.251-4.581
		c-0.395-0.75-0.789-1.5-1.171-2.264c-0.414-0.776-1.056-1.626-1.735-2.525c-1.213-1.604-2.466-3.264-2.646-4.756v-1.667
		c0-0.178,0.145-0.322,0.321-0.322h1.436c2.287,1.145,3.107,4.538,3.651,6.789l0.053,0.22c0.136,0.581,0.25,1.146,0.361,1.697
		c0.488,2.41,0.909,4.493,2.673,6.432c1.556,1.822,1.651,4.251,1.744,6.6c0.052,1.313,0.104,2.67,0.413,3.902
		c0.618,2.542-0.419,4.119-1.949,6.068c-0.347,0.438-0.703,0.96-1.08,1.512c-0.759,1.111-1.543,2.252-2.343,2.882h-2.362
		c0.209-0.51,0.329-1.029,0.441-1.533c0.094-0.428,0.184-0.831,0.323-1.223c0.135-0.359,0.362-0.69,0.603-1.04
		c0.49-0.713,0.997-1.449,0.682-2.446c-0.417-1.33-1.57-1.751-2.688-2.16c-0.998-0.365-1.938-0.72-2.279-1.712v-2.527
		C630.189,406.657,632.508,408.286,635.076,408.286z M628.787,412.491c0.214,0.077,0.415,0.129,0.588,0.172
		c0.561,0.136,0.75,0.182,0.677,0.806c-0.093,0.526-0.482,1.123-0.857,1.702c-0.144,0.221-0.282,0.437-0.407,0.648V412.491z
		 M628.787,417.726v-0.617c-0.026-0.452,0.383-1.083,0.78-1.695c0.4-0.616,0.814-1.253,0.924-1.88
		c0.122-1.028-0.454-1.168-1.012-1.303c-0.212-0.053-0.448-0.112-0.692-0.219v-3.173c0.527,0.631,1.333,0.936,2.127,1.226
		c1.061,0.388,2.063,0.755,2.415,1.875c0.249,0.789-0.155,1.378-0.623,2.06c-0.246,0.357-0.499,0.726-0.654,1.139
		c-0.15,0.422-0.247,0.858-0.34,1.28c-0.121,0.544-0.25,1.103-0.492,1.63h-2.11C628.932,418.048,628.787,417.903,628.787,417.726z
		 M636.778,415.418c0.373-0.547,0.726-1.062,1.063-1.488c1.558-1.983,2.696-3.718,2.032-6.45c-0.298-1.188-0.351-2.521-0.401-3.813
		c-0.095-2.425-0.194-4.933-1.854-6.877c-1.686-1.854-2.096-3.88-2.57-6.227c-0.112-0.555-0.228-1.124-0.364-1.711l-0.054-0.222
		c-0.512-2.118-1.263-5.208-3.248-6.685h1.789c0.409,1.107,2.121,3,3.462,3c0.074,0,0.146-0.005,0.217-0.017
		c0.466-0.077,0.77-0.274,0.901-0.583c0.293-0.686-0.374-1.667-0.862-2.382c-0.004-0.006-0.007-0.012-0.012-0.018h2.474
		l-0.013,0.032c0.091,0.036,0.133,0.091,0.215,0.202c0.052,0.071,0.108,0.147,0.185,0.223c0.41,0.411,0.681,0.816,1.004,1.369
		c0.669,1.243,1.442,2.451,2.191,3.623c1.464,2.173,2.738,4.54,2.148,7.126c-0.299,1.317-1.193,2.433-2.057,3.511
		c-1.148,1.434-2.335,2.916-2.168,4.901c0.106,1.146,0.368,2.24,0.621,3.297c0.544,2.277,1.059,4.426-0.075,6.725
		c-0.432,0.833-0.729,1.713-1.014,2.564c-0.161,0.474-0.326,0.964-0.508,1.43c-0.079,0.177-0.192,0.38-0.299,0.571
		c-0.125,0.226-0.215,0.392-0.272,0.528h-4.566C635.449,417.359,636.123,416.378,636.778,415.418z M651.237,417.726
		c0,0.178-0.145,0.322-0.322,0.322h-0.368c-0.025-2.264-1.265-4.813-2.46-6.495c-0.458-0.65-1.004-1.297-1.531-1.921
		c-1.572-1.863-3.198-3.789-3.027-6.319c0.15-1.56,0.775-3.44,1.265-4.584c0.268-0.668,0.654-1.246,1.028-1.803
		c0.409-0.608,0.83-1.238,1.107-1.996c0.603-1.656,0.337-2.939-0.289-4.479c-0.263-0.606-0.485-1.231-0.7-1.836
		c-0.285-0.8-0.58-1.627-0.965-2.394c-0.105-0.213-0.255-0.478-0.423-0.774c-0.588-1.041-1.458-2.581-1.321-3.501h1.014
		c-0.076,1.304,0.765,3.072,1.334,4.268c0.082,0.174,0.159,0.337,0.23,0.492c0.552,1.102,1.141,1.966,2.22,2.604l0.045,0.024
		c0.265,0.143,0.454,0.246,0.617,0.246c0.066,0,0.129-0.018,0.189-0.056c0.198-0.125,0.222-0.399,0.196-0.889
		c-0.034-0.838-0.312-1.675-0.578-2.485c-0.125-0.374-0.241-0.728-0.331-1.076c-0.177-0.602-0.441-1.176-0.698-1.732
		c-0.222-0.478-0.428-0.933-0.581-1.396h1.188c0.269,0.691,0.618,1.421,0.992,2.191c0.994,2.049,2.12,4.371,1.793,6.461
		c-0.279,1.715-1.27,3.045-2.317,4.453c-0.322,0.433-0.656,0.881-0.966,1.338c-2.106,3.132-2.626,5.929-1.586,8.549
		c0.55,1.375,1.449,2.598,2.319,3.781c0.496,0.676,1.011,1.376,1.441,2.08c0.944,1.602,1.486,3.893,1.486,6.287L651.237,417.726
		L651.237,417.726z M650.134,410.569c-0.441-0.724-0.962-1.43-1.465-2.114c-0.853-1.16-1.735-2.361-2.263-3.682
		c-0.982-2.475-0.479-5.135,1.542-8.136c0.303-0.448,0.634-0.892,0.952-1.321c0.978-1.313,1.979-2.672,2.338-4.357v3.557
		c-0.263,0.595-0.69,1.087-1.105,1.563c-0.205,0.233-0.417,0.476-0.606,0.728l-0.223,0.306c-0.676,0.92-1.312,1.789-1.748,2.966
		c-0.984,2.494,0.495,4.609,1.927,6.655c0.666,0.954,1.352,1.938,1.755,2.93v3.676C651.004,412.414,650.655,411.456,650.134,410.569
		z"/>
	<path d="M640.906,397.19c0.794,0,1.518-0.5,1.938-1.339c0.776-1.604,0.368-3.263-0.131-4.669c-0.427-1.321-1.428-4.415-3.619-4.468
		l-0.105-0.001c-1.056,0-1.727,0.411-2.045,1.236c-0.58,1.16-0.121,2.903,0.182,4.056l0.043,0.163
		c0.526,1.755,1.396,4.166,2.875,4.834C640.33,397.127,640.621,397.19,640.906,397.19L640.906,397.19z M640.223,396.595
		c-1.46-0.66-2.31-3.489-2.626-4.547l-0.041-0.157c-0.287-1.088-0.719-2.733-0.205-3.763c0.259-0.671,0.764-0.97,1.637-0.97
		l0.095,0.001c1.876,0.046,2.809,2.929,3.209,4.166c0.47,1.325,0.856,2.876,0.152,4.33
		C641.979,396.583,641.086,396.969,640.223,396.595z"/>
	<path d="M639.363,390.042c-0.111,0-0.381,0.042-0.486,0.423c-0.23,0.652,0.306,2.57,0.99,3.538c0.286,0.407,0.58,0.613,0.87,0.613
		c0.001,0,0.001,0,0.001,0c0.304,0,0.559-0.216,0.757-0.641c0.3-0.646-0.212-1.845-0.74-2.676
		C640.515,390.921,639.897,390.042,639.363,390.042z M641.091,393.788c-0.067,0.144-0.202,0.383-0.353,0.383
		c-0.063,0-0.236-0.042-0.508-0.424c-0.63-0.893-1.102-2.656-0.928-3.147c0.021-0.081,0.048-0.107,0.061-0.111
		c0.134,0,0.528,0.286,1.016,1.05C640.957,392.448,641.264,393.415,641.091,393.788z"/>
	<path d="M635.334,412.241c0.562,0,1.512-0.688,1.56-1.259c0.013-0.151-0.022-0.512-0.628-0.612
		c-0.591-0.059-1.185,0.449-1.396,0.938c-0.134,0.31-0.106,0.597,0.084,0.799C635.021,412.167,635.142,412.241,635.334,412.241z
		 M635.279,411.484c0.138-0.317,0.538-0.674,0.893-0.674c0.018,0,0.032,0.001,0.035,0.001c0.094,0.015,0.249,0.053,0.243,0.133
		c-0.026,0.303-0.744,0.853-1.116,0.853c-0.036,0-0.065-0.008-0.065-0.008C635.193,411.711,635.251,411.55,635.279,411.484z"/>
</g>
</svg>
