<?xml version="1.0" encoding="utf-8"?>
<!-- Generator: Adobe Illustrator 15.1.0, SVG Export Plug-In . SVG Version: 6.00 Build 0)  -->
<!DOCTYPE svg PUBLIC "-//W3C//DTD SVG 1.1//EN" "http://www.w3.org/Graphics/SVG/1.1/DTD/svg11.dtd">
<svg version="1.1" id="Layer_1" xmlns="http://www.w3.org/2000/svg" xmlns:xlink="http://www.w3.org/1999/xlink" x="0px" y="0px"
	 width="30px" height="40px" viewBox="0 0 30 40" enable-background="new 0 0 30 40" xml:space="preserve">
<g>
	<g transform="translate(0,2.5)">
		<g transform="translate(-4.5,24)">
			<ellipse fill="#ED2224" cx="9.149" cy="6.175" rx="0" ry="0"/>
			<path fill="#010101" d="M6.847-25.504v9.714c1.959-1.328,4.313-1.987,6.646-1.981c2.289,0.006,4.56,0.654,6.407,1.938v-9.671
				H6.847z M9.121-23.001h2.405v1.405H9.121V-23.001z M15.217-23.001h2.406v1.405h-2.406V-23.001z M9.816-20.596h1.017v0.593H9.816
				V-20.596z M15.912-20.596h1.02v0.593h-1.02V-20.596z M13.491-16.225c-2.485-0.007-5.012,0.817-6.847,2.502
				c-0.009,0.007-0.014,0.02-0.024,0.026v10.592l3.001,1.103v2.005h2.502v7.5c0,1.787,0.952,3.438,2.499,4.327
				c1.547,0.898,3.456,0.898,5.002,0c1.546-0.889,2.503-2.54,2.503-4.327c0-0.894,0.477-1.716,1.249-2.167
				c0.386-0.217,0.819-0.329,1.251-0.329h2.751v2.496l5.002-3.748l-5.002-3.752v2.501h-2.751c-0.865,0-1.729,0.222-2.5,0.669
				c-1.549,0.893-2.503,2.543-2.503,4.33c0,0.894-0.478,1.722-1.249,2.164c-0.773,0.45-1.728,0.45-2.501,0
				c-0.774-0.442-1.252-1.271-1.252-2.164v-7.5h2.502v-2.005l3.003-1.103v-10.594c-0.013-0.009-0.021-0.024-0.032-0.032
				C18.42-15.375,15.976-16.216,13.491-16.225z M16.351-13.222l2.927,2.928l-3.823,3.825l-2.927,2.926L9.601-6.469L7.689-8.381
				l2.509-2.51l0.417-0.418l1.912,1.911L16.351-13.222z M16.351-11.547l-3.823,3.822l-1.912-1.91L9.361-8.381l1.913,1.912
				l1.253,1.252l1.255-1.252l3.824-3.825L16.351-11.547z"/>
		</g>
	</g>
</g>
</svg>
