<?xml version="1.0" encoding="UTF-8" standalone="no"?>
<svg
   xmlns:dc="http://purl.org/dc/elements/1.1/"
   xmlns:cc="http://creativecommons.org/ns#"
   xmlns:rdf="http://www.w3.org/1999/02/22-rdf-syntax-ns#"
   xmlns:svg="http://www.w3.org/2000/svg"
   xmlns="http://www.w3.org/2000/svg"
   xmlns:sodipodi="http://sodipodi.sourceforge.net/DTD/sodipodi-0.dtd"
   xmlns:inkscape="http://www.inkscape.org/namespaces/inkscape"
   version="1.1"
   x="0px"
   y="0px"
   viewBox="0 0 16 16"
   xml:space="preserve"
   id="svg4201"
   inkscape:version="0.91 r13725"
   sodipodi:docname="credit-card.svg"
   width="16"
   height="16"><metadata
     id="metadata4219"><rdf:RDF><cc:Work
         rdf:about=""><dc:format>image/svg+xml</dc:format><dc:type
           rdf:resource="http://purl.org/dc/dcmitype/StillImage" /><dc:title></dc:title></cc:Work></rdf:RDF></metadata><defs
     id="defs4217" /><sodipodi:namedview
     pagecolor="#ffffff"
     bordercolor="#666666"
     borderopacity="1"
     objecttolerance="10"
     gridtolerance="10"
     guidetolerance="10"
     inkscape:pageopacity="0"
     inkscape:pageshadow="2"
     inkscape:window-width="1792"
     inkscape:window-height="1071"
     id="namedview4215"
     showgrid="false"
     inkscape:zoom="28.833333"
     inkscape:cx="10.649616"
     inkscape:cy="2.6476816"
     inkscape:window-x="0"
     inkscape:window-y="0"
     inkscape:window-maximized="1"
     inkscape:current-layer="svg4201" /><g
     id="g4203"
     transform="matrix(0.17002193,0,0,0.17002193,-0.07604167,-0.16105264)"><g
       id="g4205"><path
         d="M 90,29 C 90,23.5 85.5,19 80,19 L 15,19 C 9.5,19 5,23.5 5,29 l 0,38 c 0,5.5 4.5,10 10,10 l 65,0 c 5.5,0 10,-4.5 10,-10 l 0,-38 z m -74.5,-6 65,0 c 3.3,0 5.5,2.7 5.5,6 l 0,8 -77,0 0,-8 c 0,-3.3 3.2,-6 6.5,-6 z m 65,50 -65,0 C 12.2,73 9,70.3 9,67 l 0,-22 77,0 0,22 c 0,3.3 -2.2,6 -5.5,6 z"
         id="path4207"
         inkscape:connector-curvature="0" /><path
         d="m 41,51 -24,0 c -1.7,0 -3,1.3 -3,3 0,1.7 1.3,3 3,3 l 24,0 c 1.7,0 3,-1.3 3,-3 0,-1.7 -1.3,-3 -3,-3 z"
         id="path4209"
         inkscape:connector-curvature="0" /></g></g></svg>