<?xml version="1.0" encoding="UTF-8" standalone="no"?>
<svg
   xmlns:dc="http://purl.org/dc/elements/1.1/"
   xmlns:cc="http://creativecommons.org/ns#"
   xmlns:rdf="http://www.w3.org/1999/02/22-rdf-syntax-ns#"
   xmlns:svg="http://www.w3.org/2000/svg"
   xmlns="http://www.w3.org/2000/svg"
   xmlns:sodipodi="http://sodipodi.sourceforge.net/DTD/sodipodi-0.dtd"
   xmlns:inkscape="http://www.inkscape.org/namespaces/inkscape"
   version="1.2"
   x="0px"
   y="0px"
   viewBox="0 0 16 16"
   xml:space="preserve"
   id="svg4198"
   inkscape:version="0.91 r13725"
   sodipodi:docname="remove.svg"
   width="16"
   height="16"><metadata
     id="metadata4212"><rdf:RDF><cc:Work
         rdf:about=""><dc:format>image/svg+xml</dc:format><dc:type
           rdf:resource="http://purl.org/dc/dcmitype/StillImage" /><dc:title /></cc:Work></rdf:RDF></metadata><defs
     id="defs4210" /><sodipodi:namedview
     pagecolor="#ffffff"
     bordercolor="#666666"
     borderopacity="1"
     objecttolerance="10"
     gridtolerance="10"
     guidetolerance="10"
     inkscape:pageopacity="0"
     inkscape:pageshadow="2"
     inkscape:window-width="1792"
     inkscape:window-height="1071"
     id="namedview4208"
     showgrid="false"
     inkscape:zoom="39.145431"
     inkscape:cx="4.9193043"
     inkscape:cy="8.0790123"
     inkscape:window-x="0"
     inkscape:window-y="0"
     inkscape:window-maximized="1"
     inkscape:current-layer="svg4198" /><path
     d="m 2.2110354,11.473335 2.3156296,2.315629 c 0.2132903,0.213291 0.558659,0.213291 0.7717311,0 l 2.7016041,-2.701604 2.7016048,2.701604 c 0.106536,0.106534 0.246256,0.159804 0.385974,0.159804 0.13972,0 0.27922,-0.05327 0.385975,-0.159804 l 2.315411,-2.315629 c 0.21329,-0.21329 0.21329,-0.558659 0,-0.771731 L 11.087361,7.9999998 13.788965,5.2983957 c 0.21329,-0.2132903 0.21329,-0.558659 0,-0.7717309 L 11.473336,2.2110352 c -0.213291,-0.2132903 -0.558659,-0.2132903 -0.771731,0 L 8.0000002,4.9126393 5.2983961,2.2110352 c -0.2132905,-0.2132903 -0.5586592,-0.2132903 -0.7717311,0 L 2.2110354,4.5266648 c -0.2132902,0.2132903 -0.2132902,0.5586589 0,0.7717309 L 4.9126397,7.9999998 2.2110354,10.701604 c -0.2130719,0.21329 -0.2130719,0.558659 0,0.771731 z M 6.0703453,8.3859745 c 0.2132903,-0.2132903 0.2132903,-0.558659 0,-0.7717309 L 3.3687411,4.912421 4.9124214,3.3687408 7.6140255,6.0703449 c 0.2132903,0.2132903 0.5586591,0.2132903 0.771731,0 L 11.087361,3.3687408 12.631041,4.912421 9.9296547,7.6140253 c -0.21329,0.2132902 -0.21329,0.5586589 0,0.7717309 L 12.63126,11.08736 11.087579,12.63104 8.3859749,9.9296548 C 8.2794388,9.8231188 8.1397195,9.7698508 8.0000002,9.7698508 c -0.1397194,0 -0.2792203,0.053268 -0.3859747,0.159804 L 4.9124214,12.631259 3.3687411,11.087578 6.0703453,8.3859745 Z"
     id="path4202"
     inkscape:connector-curvature="0" /></svg>