<?xml version="1.0" encoding="UTF-8" standalone="no"?>
<svg
   xmlns:dc="http://purl.org/dc/elements/1.1/"
   xmlns:cc="http://creativecommons.org/ns#"
   xmlns:rdf="http://www.w3.org/1999/02/22-rdf-syntax-ns#"
   xmlns:svg="http://www.w3.org/2000/svg"
   xmlns="http://www.w3.org/2000/svg"
   xmlns:sodipodi="http://sodipodi.sourceforge.net/DTD/sodipodi-0.dtd"
   xmlns:inkscape="http://www.inkscape.org/namespaces/inkscape"
   version="1.1"
   x="0px"
   y="0px"
   viewBox="0 0 16 16"
   xml:space="preserve"
   id="svg4201"
   inkscape:version="0.91 r13725"
   sodipodi:docname="ticket.svg"
   width="16"
   height="16"><metadata
     id="metadata4219"><rdf:RDF><cc:Work
         rdf:about=""><dc:format>image/svg+xml</dc:format><dc:type
           rdf:resource="http://purl.org/dc/dcmitype/StillImage" /><dc:title /></cc:Work></rdf:RDF></metadata><defs
     id="defs4217" /><sodipodi:namedview
     pagecolor="#ffffff"
     bordercolor="#666666"
     borderopacity="1"
     objecttolerance="10"
     gridtolerance="10"
     guidetolerance="10"
     inkscape:pageopacity="0"
     inkscape:pageshadow="2"
     inkscape:window-width="1792"
     inkscape:window-height="1071"
     id="namedview4215"
     showgrid="false"
     inkscape:zoom="28.833334"
     inkscape:cx="11.359707"
     inkscape:cy="4.7845744"
     inkscape:window-x="0"
     inkscape:window-y="0"
     inkscape:window-maximized="1"
     inkscape:current-layer="svg4201" /><g
     transform="matrix(0.13882033,0,0,0.13882033,1.0590498,1.0587059)"
     id="g4617"><path
       inkscape:connector-curvature="0"
       d="M 87.622,23.649 C 87.606,23.571 87.577,23.5 87.554,23.425 87.534,23.36 87.52,23.292 87.494,23.23 87.465,23.16 87.424,23.098 87.388,23.032 87.355,22.969 87.326,22.903 87.286,22.844 87.253,22.795 87.21,22.754 87.175,22.707 87.121,22.64 87.072,22.57 87.012,22.509 L 68.157,3.658 C 68.092,3.593 68.017,3.541 67.945,3.485 67.904,3.452 67.867,3.414 67.823,3.384 67.76,3.342 67.692,3.313 67.627,3.278 67.563,3.244 67.504,3.205 67.438,3.177 67.371,3.149 67.301,3.135 67.231,3.114 67.162,3.092 67.092,3.064 67.018,3.049 66.873,3.02 66.724,3.005 66.575,3.005 l -52.004,0 c -1.236,0 -2.238,1.002 -2.238,2.238 l 0,89.518 c 0,1.235 1.002,2.238 2.238,2.238 l 70.857,0 c 1.235,0 2.238,-1.003 2.238,-2.238 l 0,-70.668 c 0.001,-0.15 -0.015,-0.299 -0.044,-0.444 z m -18.809,-13.005 11.212,11.211 -11.212,0 0,-11.211 z m -52.003,81.877 0,-85.042 47.526,0 0,16.614 c 0,1.236 1.002,2.238 2.238,2.238 l 16.616,0 0,66.189 -66.38,0 z"
       id="path4619" /><path
       inkscape:connector-curvature="0"
       d="m 72.32,64.977 -44.641,0 c -1.235,0 -2.238,1.003 -2.238,2.238 0,1.236 1.002,2.238 2.238,2.238 l 44.641,0 c 1.236,0 2.238,-1.002 2.238,-2.238 10e-4,-1.236 -1.001,-2.238 -2.238,-2.238 z"
       id="path4621" /><path
       inkscape:connector-curvature="0"
       d="m 72.32,78.988 -44.641,0 c -1.235,0 -2.238,1.003 -2.238,2.238 0,1.235 1.002,2.238 2.238,2.238 l 44.641,0 c 1.236,0 2.238,-1.003 2.238,-2.238 0,-1.235 -1.001,-2.238 -2.238,-2.238 z"
       id="path4623" /><path
       inkscape:connector-curvature="0"
       d="m 35.874,43.499 c 0,-1.236 -1.002,-2.238 -2.238,-2.238 -1.235,0 -2.238,1.002 -2.238,2.238 0,4.857 3.978,8.916 9.236,9.828 l 0,3.428 c 0,1.235 1.002,2.238 2.238,2.238 1.237,0 2.238,-1.003 2.238,-2.238 l 0,-3.428 c 5.263,-0.911 9.244,-4.97 9.244,-9.828 0,-5.154 -4.647,-7.478 -9.244,-9.336 l 0,-11.486 c 2.769,0.741 4.768,2.813 4.768,5.251 0,1.236 1.002,2.238 2.238,2.238 1.236,0 2.238,-1.002 2.238,-2.238 0,-4.858 -3.98,-8.917 -9.244,-9.828 l 0,-3.432 c 0,-1.236 -1,-2.238 -2.238,-2.238 -1.236,0 -2.238,1.002 -2.238,2.238 l 0,3.432 c -5.258,0.913 -9.236,4.971 -9.236,9.828 0,5.115 4.652,7.418 9.236,9.268 l 0,11.552 c -2.763,-0.742 -4.76,-2.812 -4.76,-5.249 z m 14.003,0 c 0,2.438 -1.999,4.509 -4.768,5.25 l 0,-9.721 c 2.96,1.324 4.768,2.591 4.768,4.471 z M 35.874,27.928 c 0,-2.438 1.997,-4.508 4.76,-5.25 l 0,9.655 c -2.952,-1.315 -4.76,-2.565 -4.76,-4.405 z"
       id="path4625" /></g></svg>