<?xml version="1.0" encoding="UTF-8" standalone="no"?>
<svg
   xmlns:dc="http://purl.org/dc/elements/1.1/"
   xmlns:cc="http://creativecommons.org/ns#"
   xmlns:rdf="http://www.w3.org/1999/02/22-rdf-syntax-ns#"
   xmlns:svg="http://www.w3.org/2000/svg"
   xmlns="http://www.w3.org/2000/svg"
   xmlns:sodipodi="http://sodipodi.sourceforge.net/DTD/sodipodi-0.dtd"
   xmlns:inkscape="http://www.inkscape.org/namespaces/inkscape"
   version="1.1"
   x="0px"
   y="0px"
   viewBox="0 0 16 16"
   id="svg4190"
   inkscape:version="0.91 r13725"
   sodipodi:docname="type-residential.svg"
   width="16"
   height="16">
  <metadata
     id="metadata4204">
    <rdf:RDF>
      <cc:Work
         rdf:about="">
        <dc:format>image/svg+xml</dc:format>
        <dc:type
           rdf:resource="http://purl.org/dc/dcmitype/StillImage" />
        <dc:title />
      </cc:Work>
    </rdf:RDF>
  </metadata>
  <defs
     id="defs4202" />
  <sodipodi:namedview
     pagecolor="#ffffff"
     bordercolor="#666666"
     borderopacity="1"
     objecttolerance="10"
     gridtolerance="10"
     guidetolerance="10"
     inkscape:pageopacity="0"
     inkscape:pageshadow="2"
     inkscape:window-width="1792"
     inkscape:window-height="1071"
     id="namedview4200"
     showgrid="false"
     inkscape:zoom="19.572716"
     inkscape:cx="11.278938"
     inkscape:cy="9.3919909"
     inkscape:window-x="0"
     inkscape:window-y="0"
     inkscape:window-maximized="1"
     inkscape:current-layer="svg4190" />
  <g
     transform="matrix(0.17419743,0,0,0.17419743,-0.70987152,-166.60892)"
     id="g4192">
    <path
       style="color:#000000;display:inline;overflow:visible;visibility:visible;fill:#000000;stroke:none;marker:none;enable-background:accumulate"
       d="m 49.946118,971.3624 c -0.41963,0.009 -0.81114,0.14803 -1.1875,0.40625 l -38,29.99995 c -0.8742907,0.7022 -0.9983307,1.9979 -0.34375,2.8438 0.64516,0.8338 2.01747,0.9672 2.84375,0.3125 l 36.75,-29 36.750001,29 c 0.8263,0.6547 2.1609,0.5162 2.8125,-0.3125 0.6468,-0.8225 0.5772,-2.1888 -0.3125,-2.8438 l -16.250001,-12.8437 0,-17.5625 -8,0 0,11.25 -13.75,-10.84375 c -0.44512,-0.29323 -0.89287,-0.415 -1.3125,-0.40625 z m 0.0625,8 -27,21 0,33 19,0 0,-12 c 0,-4.432 3.568,-8 8,-8 4.432,0 8,3.568 8,8 l 0,12 19,0 0,-33 -27,-21 z"
       visibility="visible"
       display="inline"
       overflow="visible"
       id="path4194"
       inkscape:connector-curvature="0" />
  </g>
</svg>
