<?xml version="1.0" encoding="UTF-8" standalone="no"?>
<svg
   xmlns:dc="http://purl.org/dc/elements/1.1/"
   xmlns:cc="http://creativecommons.org/ns#"
   xmlns:rdf="http://www.w3.org/1999/02/22-rdf-syntax-ns#"
   xmlns:svg="http://www.w3.org/2000/svg"
   xmlns="http://www.w3.org/2000/svg"
   xmlns:sodipodi="http://sodipodi.sourceforge.net/DTD/sodipodi-0.dtd"
   xmlns:inkscape="http://www.inkscape.org/namespaces/inkscape"
   version="1.0"
   x="0px"
   y="0px"
   viewBox="0 0 16 16"
   enable-background="new 0 0 100 100"
   xml:space="preserve"
   id="svg4295"
   inkscape:version="0.91 r13725"
   sodipodi:docname="type-commercial.svg"
   width="16"
   height="16"><metadata
     id="metadata4309"><rdf:RDF><cc:Work
         rdf:about=""><dc:format>image/svg+xml</dc:format><dc:type
           rdf:resource="http://purl.org/dc/dcmitype/StillImage" /><dc:title>building-15.svg</dc:title></cc:Work></rdf:RDF></metadata><defs
     id="defs4307" /><sodipodi:namedview
     pagecolor="#ffffff"
     bordercolor="#666666"
     borderopacity="1"
     objecttolerance="10"
     gridtolerance="10"
     guidetolerance="10"
     inkscape:pageopacity="0"
     inkscape:pageshadow="2"
     inkscape:window-width="1792"
     inkscape:window-height="1071"
     id="namedview4305"
     showgrid="false"
     inkscape:zoom="15.104"
     inkscape:cx="-9.6121867"
     inkscape:cy="6.2943893"
     inkscape:window-x="0"
     inkscape:window-y="0"
     inkscape:window-maximized="1"
     inkscape:current-layer="svg4295" /><title
     id="title4297">building-15.svg</title><path
     d="m 2.9783607,2.194794 0,11.937466 5.573543,0 0,-3.06613 c 0,-0.149899 0.1226454,-0.286173 0.286172,-0.286173 l 2.7799573,0 c 0.1499,0 0.286173,0.122645 0.286173,0.286173 l 0,3.06613 1.117433,0 0,-11.937466 c 0,-0.1771539 -0.149899,-0.3270537 -0.327052,-0.3270537 l -9.3891727,0 c -0.177154,0 -0.3270537,0.1498998 -0.3270537,0.3270537 z m 4.4561087,10.820032 -3.3386743,0 0,-2.221242 3.3386743,0 0,2.221242 z m 0,-3.3386753 -3.3386743,0 0,-2.234867 3.3386743,0 0,2.234867 z m 0,-3.3523016 -3.3386743,0 0,-2.2212406 3.3386743,0 0,2.2212406 z m 4.4561096,3.3523016 -3.3386753,0 0,-2.234867 3.3386753,0 0,2.234867 z m 0,-3.3523016 -3.3386753,0 0,-2.2212406 3.3386753,0 0,2.2212406 z"
     id="path4299"
     inkscape:connector-curvature="0" /></svg>